<svg xmlns="http://www.w3.org/2000/svg" viewBox="0 0 1125 1092">
<path d="M 202,801 L 201,802 L 197,802 L 196,803 L 192,803 L 191,804 L 186,804 L 185,805 L 181,805 L 180,806 L 176,806 L 175,807 L 171,807 L 170,808 L 166,808 L 165,809 L 161,809 L 160,810 L 155,810 L 154,811 L 150,811 L 149,812 L 146,812 L 145,813 L 140,813 L 139,814 L 135,814 L 134,815 L 130,815 L 129,816 L 127,816 L 127,818 L 131,822 L 131,823 L 144,836 L 144,837 L 149,842 L 149,843 L 150,844 L 150,845 L 151,845 L 154,848 L 154,849 L 155,850 L 155,851 L 156,852 L 157,852 L 161,856 L 161,857 L 166,862 L 166,863 L 171,868 L 171,869 L 178,876 L 178,877 L 191,890 L 191,891 L 201,901 L 202,901 L 215,914 L 216,914 L 223,921 L 224,921 L 229,926 L 230,926 L 235,931 L 236,931 L 238,933 L 239,933 L 243,937 L 244,937 L 247,940 L 248,940 L 251,943 L 252,943 L 254,945 L 254,946 L 255,946 L 257,948 L 258,948 L 260,950 L 261,950 L 264,953 L 265,953 L 267,955 L 268,955 L 270,957 L 271,957 L 272,958 L 273,958 L 275,960 L 276,960 L 277,961 L 278,961 L 280,963 L 281,963 L 283,965 L 284,965 L 285,966 L 286,966 L 288,968 L 289,968 L 290,969 L 291,969 L 293,971 L 294,971 L 295,972 L 296,972 L 298,974 L 299,974 L 300,975 L 301,975 L 302,976 L 303,976 L 304,977 L 305,977 L 307,979 L 308,979 L 309,980 L 310,980 L 312,982 L 315,982 L 317,984 L 319,984 L 320,985 L 321,985 L 322,986 L 323,986 L 324,987 L 325,987 L 326,988 L 327,988 L 329,990 L 330,990 L 331,991 L 332,991 L 333,992 L 334,992 L 335,993 L 336,993 L 337,994 L 338,994 L 339,995 L 340,995 L 341,996 L 343,996 L 344,997 L 345,997 L 346,998 L 347,998 L 348,999 L 349,999 L 350,1000 L 352,1000 L 353,1001 L 354,1001 L 355,1002 L 356,1002 L 357,1003 L 359,1003 L 360,1004 L 361,1004 L 362,1005 L 364,1005 L 366,1007 L 369,1007 L 370,1008 L 373,1008 L 374,1009 L 375,1009 L 376,1010 L 377,1010 L 378,1011 L 380,1011 L 381,1012 L 383,1012 L 384,1013 L 386,1013 L 387,1014 L 389,1014 L 390,1015 L 392,1015 L 393,1016 L 395,1016 L 396,1017 L 398,1017 L 399,1018 L 401,1018 L 402,1019 L 404,1019 L 405,1020 L 407,1020 L 408,1021 L 410,1021 L 411,1022 L 413,1022 L 414,1023 L 417,1023 L 418,1024 L 420,1024 L 421,1025 L 424,1025 L 425,1026 L 428,1026 L 429,1027 L 432,1027 L 433,1028 L 436,1028 L 437,1029 L 440,1029 L 441,1030 L 444,1030 L 445,1031 L 449,1031 L 450,1032 L 454,1032 L 455,1033 L 459,1033 L 460,1034 L 470,1034 L 471,1035 L 476,1035 L 477,1036 L 482,1036 L 483,1037 L 490,1037 L 491,1038 L 499,1038 L 500,1039 L 509,1039 L 510,1040 L 523,1040 L 524,1041 L 553,1041 L 554,1042 L 565,1042 L 566,1041 L 594,1041 L 595,1040 L 607,1040 L 608,1039 L 617,1039 L 618,1038 L 625,1038 L 626,1037 L 633,1037 L 634,1036 L 639,1036 L 640,1035 L 646,1035 L 647,1034 L 656,1034 L 657,1033 L 661,1033 L 662,1032 L 665,1032 L 666,1031 L 669,1031 L 670,1030 L 673,1030 L 674,1029 L 678,1029 L 679,1028 L 682,1028 L 683,1027 L 685,1027 L 686,1026 L 689,1026 L 690,1025 L 693,1025 L 694,1024 L 696,1024 L 697,1023 L 698,1023 L 699,1022 L 702,1022 L 703,1021 L 705,1021 L 706,1020 L 708,1020 L 709,1019 L 711,1019 L 712,1018 L 714,1018 L 715,1017 L 717,1017 L 718,1016 L 720,1016 L 721,1015 L 723,1015 L 724,1014 L 726,1014 L 727,1013 L 728,1013 L 729,1012 L 731,1012 L 732,1011 L 734,1011 L 735,1010 L 737,1010 L 738,1009 L 741,1009 L 742,1008 L 744,1008 L 745,1007 L 746,1007 L 747,1006 L 749,1006 L 750,1005 L 751,1005 L 752,1004 L 754,1004 L 755,1003 L 756,1003 L 757,1002 L 759,1002 L 760,1001 L 761,1001 L 762,1000 L 764,1000 L 765,999 L 766,999 L 767,998 L 768,998 L 769,997 L 771,997 L 772,996 L 773,996 L 774,995 L 775,995 L 776,994 L 777,994 L 779,992 L 781,992 L 782,991 L 783,991 L 784,990 L 785,990 L 786,989 L 787,989 L 788,988 L 789,988 L 790,987 L 791,987 L 792,986 L 793,986 L 794,985 L 796,985 L 797,984 L 798,984 L 799,983 L 800,983 L 801,982 L 802,982 L 803,981 L 804,981 L 805,980 L 806,980 L 807,979 L 808,979 L 810,977 L 811,977 L 812,976 L 813,976 L 814,975 L 815,975 L 816,974 L 817,974 L 819,972 L 820,972 L 821,971 L 822,971 L 823,970 L 824,970 L 826,968 L 827,968 L 829,966 L 830,966 L 831,965 L 832,965 L 835,962 L 836,962 L 838,960 L 839,960 L 841,958 L 842,958 L 843,957 L 845,957 L 845,956 L 846,955 L 847,955 L 850,952 L 851,952 L 865,938 L 865,937 L 867,935 L 867,934 L 869,932 L 869,931 L 870,930 L 870,928 L 869,927 L 867,927 L 866,928 L 859,928 L 858,929 L 843,929 L 842,930 L 802,930 L 801,929 L 797,929 L 796,928 L 792,928 L 791,927 L 789,927 L 788,926 L 785,926 L 784,925 L 781,925 L 780,924 L 776,924 L 775,923 L 760,923 L 759,924 L 755,924 L 754,925 L 751,925 L 750,926 L 748,926 L 747,927 L 745,927 L 744,928 L 743,928 L 742,929 L 740,929 L 739,930 L 738,930 L 737,931 L 736,931 L 735,932 L 733,932 L 732,933 L 731,933 L 730,934 L 729,934 L 728,935 L 726,935 L 725,936 L 724,936 L 723,937 L 721,937 L 720,938 L 719,938 L 718,939 L 716,939 L 714,941 L 712,941 L 711,942 L 710,942 L 709,943 L 707,943 L 706,944 L 704,944 L 703,945 L 701,945 L 700,946 L 698,946 L 697,947 L 695,947 L 694,948 L 690,948 L 689,949 L 686,949 L 685,950 L 683,950 L 682,951 L 679,951 L 678,952 L 676,952 L 675,953 L 672,953 L 671,954 L 669,954 L 668,955 L 665,955 L 664,956 L 660,956 L 659,957 L 656,957 L 655,958 L 650,958 L 649,959 L 645,959 L 644,960 L 640,960 L 639,961 L 633,961 L 632,962 L 624,962 L 623,963 L 614,963 L 613,964 L 562,964 L 561,963 L 543,963 L 542,962 L 528,962 L 527,961 L 516,961 L 515,960 L 505,960 L 504,959 L 495,959 L 494,958 L 487,958 L 486,957 L 479,957 L 478,956 L 472,956 L 471,955 L 465,955 L 464,954 L 461,954 L 460,953 L 455,953 L 454,952 L 450,952 L 449,951 L 446,951 L 445,950 L 438,950 L 437,949 L 436,949 L 435,948 L 431,948 L 430,947 L 427,947 L 426,946 L 424,946 L 423,945 L 420,945 L 419,944 L 418,944 L 417,943 L 415,943 L 414,942 L 412,942 L 411,941 L 409,941 L 408,940 L 406,940 L 405,939 L 404,939 L 403,938 L 401,938 L 400,937 L 398,937 L 397,936 L 396,936 L 395,935 L 393,935 L 392,934 L 391,934 L 390,933 L 389,933 L 388,932 L 387,932 L 386,931 L 385,931 L 384,930 L 383,930 L 382,929 L 381,929 L 380,928 L 379,928 L 378,927 L 376,927 L 375,926 L 374,926 L 373,925 L 372,925 L 371,924 L 370,924 L 369,923 L 367,923 L 366,922 L 365,922 L 364,921 L 363,921 L 362,920 L 361,920 L 360,919 L 359,919 L 357,917 L 356,917 L 355,916 L 354,916 L 353,915 L 352,915 L 350,913 L 349,913 L 348,912 L 347,912 L 346,911 L 345,911 L 343,909 L 342,909 L 341,908 L 340,908 L 338,906 L 337,906 L 335,904 L 334,904 L 332,902 L 331,902 L 330,901 L 330,900 L 328,900 L 327,899 L 326,899 L 324,897 L 323,897 L 321,895 L 320,895 L 317,892 L 316,892 L 314,890 L 314,889 L 313,889 L 310,886 L 309,886 L 306,883 L 305,883 L 301,879 L 300,879 L 295,874 L 294,874 L 290,870 L 289,870 L 283,864 L 282,864 L 276,858 L 275,858 L 267,850 L 266,850 L 259,843 L 258,843 L 248,833 L 247,833 L 237,823 L 236,823 L 226,813 L 225,813 L 216,804 L 215,804 L 213,802 L 212,802 L 211,801 Z" fill="#000000" fill-rule="evenodd"/><path d="M 923,218 L 922,219 L 916,219 L 915,220 L 910,220 L 909,221 L 906,221 L 905,222 L 902,222 L 901,223 L 899,223 L 898,224 L 895,224 L 894,225 L 892,225 L 891,226 L 888,226 L 887,227 L 885,227 L 884,228 L 881,228 L 880,229 L 877,229 L 876,230 L 874,230 L 873,231 L 871,231 L 871,233 L 873,235 L 873,236 L 876,239 L 876,240 L 877,240 L 878,241 L 878,242 L 879,242 L 884,247 L 884,248 L 891,255 L 891,256 L 896,261 L 896,262 L 899,265 L 899,266 L 903,270 L 903,271 L 907,275 L 907,276 L 910,279 L 910,280 L 913,283 L 913,284 L 915,286 L 915,287 L 918,290 L 918,291 L 920,293 L 920,294 L 922,296 L 922,297 L 923,298 L 923,299 L 925,301 L 925,302 L 927,304 L 927,305 L 929,307 L 929,308 L 930,309 L 930,310 L 932,312 L 932,313 L 934,315 L 934,316 L 935,317 L 935,318 L 937,320 L 937,321 L 939,323 L 939,324 L 941,326 L 941,327 L 942,328 L 942,329 L 943,330 L 943,331 L 944,332 L 944,333 L 946,335 L 946,336 L 947,337 L 947,338 L 948,339 L 948,340 L 949,341 L 949,343 L 950,344 L 950,345 L 951,346 L 951,347 L 952,348 L 952,349 L 953,350 L 953,351 L 954,352 L 954,353 L 955,354 L 955,356 L 956,357 L 956,358 L 957,359 L 957,360 L 958,361 L 958,362 L 959,363 L 959,364 L 960,365 L 960,367 L 961,368 L 961,369 L 962,370 L 962,372 L 964,374 L 964,375 L 965,376 L 965,378 L 966,379 L 966,381 L 967,382 L 967,383 L 968,384 L 968,386 L 969,387 L 969,389 L 970,390 L 970,391 L 971,392 L 971,394 L 972,395 L 972,397 L 973,398 L 973,400 L 974,401 L 974,403 L 975,404 L 975,408 L 976,409 L 976,412 L 977,413 L 977,414 L 978,415 L 978,418 L 979,419 L 979,422 L 980,423 L 980,425 L 981,426 L 981,429 L 982,430 L 982,433 L 983,434 L 983,438 L 984,439 L 984,442 L 985,443 L 985,446 L 986,447 L 986,451 L 987,452 L 987,456 L 988,457 L 988,462 L 989,463 L 989,468 L 990,469 L 990,474 L 991,475 L 991,482 L 992,483 L 992,491 L 993,492 L 993,501 L 994,502 L 994,518 L 995,519 L 995,560 L 994,561 L 994,575 L 993,576 L 993,586 L 992,587 L 992,594 L 991,595 L 991,602 L 990,603 L 990,609 L 989,610 L 989,615 L 988,616 L 988,620 L 987,621 L 987,625 L 986,626 L 986,630 L 985,631 L 985,635 L 984,636 L 984,639 L 983,640 L 983,643 L 982,644 L 982,648 L 981,649 L 981,650 L 980,651 L 980,654 L 979,655 L 979,658 L 978,659 L 978,661 L 977,662 L 977,665 L 976,666 L 976,669 L 975,670 L 975,674 L 974,675 L 974,677 L 973,678 L 973,680 L 972,681 L 972,682 L 971,683 L 971,685 L 970,686 L 970,688 L 969,689 L 969,691 L 968,692 L 968,693 L 967,694 L 967,695 L 966,696 L 966,698 L 965,699 L 965,700 L 964,701 L 964,703 L 963,704 L 963,705 L 962,706 L 962,707 L 961,708 L 961,710 L 960,711 L 960,712 L 959,713 L 959,714 L 958,715 L 958,717 L 957,718 L 957,719 L 956,720 L 956,721 L 955,722 L 955,723 L 954,724 L 954,725 L 952,727 L 952,729 L 950,731 L 950,734 L 949,735 L 949,736 L 948,737 L 948,738 L 947,739 L 947,740 L 945,742 L 945,743 L 944,744 L 944,745 L 942,747 L 942,748 L 941,749 L 941,750 L 940,751 L 940,752 L 938,754 L 938,755 L 937,756 L 937,757 L 936,758 L 936,759 L 934,761 L 934,762 L 932,764 L 932,765 L 931,766 L 931,767 L 929,769 L 929,770 L 927,772 L 927,773 L 925,775 L 925,776 L 923,778 L 923,779 L 922,780 L 922,781 L 920,783 L 920,784 L 918,786 L 918,787 L 915,790 L 915,791 L 912,794 L 912,795 L 910,797 L 909,797 L 909,798 L 906,801 L 906,802 L 903,805 L 903,806 L 899,810 L 899,812 L 898,813 L 897,813 L 897,814 L 895,816 L 895,817 L 893,819 L 892,819 L 890,821 L 890,822 L 880,832 L 880,833 L 866,847 L 866,848 L 856,858 L 856,859 L 847,868 L 847,869 L 846,870 L 846,872 L 847,873 L 848,873 L 849,874 L 850,874 L 851,875 L 852,875 L 853,876 L 854,876 L 855,877 L 856,877 L 857,878 L 859,878 L 860,879 L 861,879 L 862,880 L 863,880 L 864,881 L 865,881 L 866,882 L 869,882 L 870,883 L 871,883 L 872,884 L 874,884 L 875,885 L 876,885 L 877,886 L 878,886 L 879,887 L 881,887 L 882,888 L 883,888 L 884,889 L 885,889 L 886,890 L 887,890 L 888,891 L 890,891 L 891,892 L 892,892 L 893,893 L 894,893 L 895,894 L 897,894 L 898,895 L 899,895 L 901,897 L 902,897 L 903,898 L 905,898 L 906,899 L 907,899 L 908,900 L 909,900 L 910,901 L 911,901 L 912,902 L 917,902 L 922,897 L 922,896 L 926,892 L 926,891 L 931,886 L 931,885 L 934,882 L 934,881 L 939,876 L 939,875 L 943,871 L 943,870 L 948,865 L 948,864 L 953,859 L 953,858 L 957,854 L 957,853 L 960,850 L 960,849 L 963,846 L 963,845 L 967,841 L 967,840 L 970,837 L 970,836 L 972,834 L 972,833 L 975,830 L 975,829 L 977,827 L 978,827 L 978,825 L 980,823 L 980,822 L 981,821 L 982,821 L 982,819 L 983,818 L 983,817 L 985,815 L 985,814 L 987,812 L 987,811 L 990,808 L 990,807 L 993,804 L 993,803 L 995,801 L 995,800 L 996,799 L 996,798 L 998,796 L 998,795 L 999,794 L 999,793 L 1001,791 L 1001,790 L 1002,789 L 1002,788 L 1004,786 L 1004,785 L 1005,784 L 1005,783 L 1006,782 L 1006,781 L 1008,779 L 1008,778 L 1009,777 L 1009,776 L 1010,775 L 1010,774 L 1011,773 L 1011,771 L 1013,769 L 1013,768 L 1014,767 L 1014,766 L 1015,765 L 1015,764 L 1016,763 L 1016,762 L 1017,761 L 1017,760 L 1018,759 L 1018,758 L 1019,757 L 1019,756 L 1021,754 L 1021,753 L 1022,752 L 1022,751 L 1023,750 L 1023,748 L 1024,747 L 1024,746 L 1025,745 L 1025,744 L 1026,743 L 1026,742 L 1027,741 L 1027,740 L 1028,739 L 1028,737 L 1029,736 L 1029,735 L 1030,734 L 1030,733 L 1031,732 L 1031,730 L 1032,729 L 1032,728 L 1033,727 L 1033,725 L 1034,724 L 1034,723 L 1035,722 L 1035,720 L 1036,719 L 1036,716 L 1037,715 L 1037,714 L 1038,713 L 1038,711 L 1039,710 L 1039,708 L 1040,707 L 1040,706 L 1041,705 L 1041,703 L 1042,702 L 1042,700 L 1043,699 L 1043,697 L 1044,696 L 1044,694 L 1045,693 L 1045,691 L 1046,690 L 1046,688 L 1047,687 L 1047,685 L 1048,684 L 1048,681 L 1049,680 L 1049,678 L 1050,677 L 1050,675 L 1051,674 L 1051,671 L 1052,670 L 1052,667 L 1053,666 L 1053,663 L 1054,662 L 1054,659 L 1055,658 L 1055,655 L 1056,654 L 1056,650 L 1057,649 L 1057,645 L 1058,644 L 1058,641 L 1059,640 L 1059,636 L 1060,635 L 1060,630 L 1061,629 L 1061,624 L 1062,623 L 1062,610 L 1063,609 L 1063,602 L 1064,601 L 1064,591 L 1065,590 L 1065,576 L 1066,575 L 1066,507 L 1065,506 L 1065,495 L 1064,494 L 1064,486 L 1063,485 L 1063,480 L 1062,479 L 1062,471 L 1061,470 L 1061,464 L 1060,463 L 1060,460 L 1059,459 L 1059,455 L 1058,454 L 1058,451 L 1057,450 L 1057,448 L 1056,447 L 1056,444 L 1055,443 L 1055,441 L 1054,440 L 1054,437 L 1053,436 L 1053,433 L 1052,432 L 1052,430 L 1051,429 L 1051,426 L 1050,425 L 1050,423 L 1049,422 L 1049,419 L 1048,418 L 1048,416 L 1047,415 L 1047,413 L 1046,412 L 1046,409 L 1045,408 L 1045,406 L 1044,405 L 1044,402 L 1043,401 L 1043,398 L 1042,397 L 1042,393 L 1041,392 L 1041,389 L 1040,388 L 1040,386 L 1039,385 L 1039,383 L 1038,382 L 1038,379 L 1037,378 L 1037,376 L 1036,375 L 1036,372 L 1035,371 L 1035,369 L 1034,368 L 1034,367 L 1033,366 L 1033,365 L 1032,364 L 1032,363 L 1031,362 L 1031,361 L 1030,360 L 1030,359 L 1029,358 L 1029,357 L 1028,356 L 1028,355 L 1027,354 L 1027,353 L 1026,352 L 1026,351 L 1025,350 L 1025,349 L 1024,348 L 1024,347 L 1023,346 L 1023,345 L 1022,344 L 1022,343 L 1021,342 L 1021,341 L 1019,339 L 1019,338 L 1018,337 L 1018,336 L 1017,335 L 1017,334 L 1016,333 L 1016,332 L 1015,331 L 1015,330 L 1014,329 L 1014,328 L 1013,327 L 1013,326 L 1012,325 L 1012,324 L 1011,323 L 1011,321 L 1010,320 L 1010,319 L 1009,318 L 1009,317 L 1007,315 L 1007,314 L 1006,313 L 1006,312 L 1005,311 L 1005,310 L 1004,309 L 1004,308 L 1003,307 L 1003,306 L 1002,305 L 1002,304 L 1001,303 L 1001,302 L 999,300 L 999,299 L 998,298 L 998,297 L 997,296 L 997,295 L 996,294 L 996,293 L 995,292 L 995,291 L 993,289 L 993,288 L 991,286 L 991,285 L 990,284 L 990,283 L 988,281 L 988,280 L 987,279 L 987,278 L 986,277 L 986,276 L 985,275 L 985,274 L 983,272 L 983,270 L 981,268 L 981,267 L 980,266 L 980,265 L 978,263 L 978,262 L 977,261 L 977,260 L 976,259 L 976,258 L 974,256 L 974,255 L 973,254 L 973,253 L 971,251 L 971,250 L 969,248 L 969,247 L 967,245 L 967,244 L 965,242 L 965,241 L 962,238 L 962,237 L 949,224 L 948,224 L 947,223 L 946,223 L 944,221 L 943,221 L 942,220 L 940,220 L 939,219 L 936,219 L 935,218 Z" fill="#000000" fill-rule="evenodd"/><path d="M 498,160 L 497,161 L 494,161 L 493,162 L 487,162 L 486,163 L 483,163 L 482,164 L 480,164 L 479,165 L 477,165 L 476,166 L 474,166 L 473,167 L 472,167 L 471,168 L 470,168 L 469,169 L 468,169 L 467,170 L 466,170 L 465,171 L 464,171 L 462,173 L 461,173 L 456,178 L 455,178 L 447,186 L 446,186 L 443,189 L 442,189 L 442,190 L 440,192 L 439,192 L 439,193 L 438,194 L 437,194 L 436,195 L 436,196 L 435,197 L 434,197 L 434,198 L 416,216 L 416,217 L 414,219 L 413,219 L 410,222 L 410,223 L 407,226 L 407,227 L 400,234 L 400,235 L 397,238 L 396,238 L 394,240 L 394,241 L 389,246 L 389,247 L 385,251 L 385,252 L 381,256 L 381,257 L 377,261 L 377,262 L 373,266 L 373,267 L 370,270 L 370,271 L 366,275 L 366,276 L 363,279 L 363,280 L 359,284 L 359,285 L 357,287 L 357,288 L 354,291 L 354,292 L 351,295 L 351,296 L 348,299 L 348,300 L 345,303 L 345,304 L 343,306 L 343,307 L 340,310 L 340,311 L 338,313 L 338,314 L 335,317 L 335,318 L 333,320 L 333,321 L 330,324 L 330,325 L 329,326 L 329,327 L 327,329 L 327,330 L 324,333 L 324,334 L 322,336 L 322,337 L 318,341 L 318,342 L 316,344 L 316,345 L 314,347 L 314,348 L 312,350 L 312,351 L 310,353 L 310,354 L 308,356 L 308,357 L 306,359 L 306,360 L 305,361 L 305,362 L 303,364 L 303,365 L 301,367 L 301,368 L 300,369 L 300,370 L 298,372 L 298,373 L 296,375 L 296,376 L 295,377 L 295,378 L 293,380 L 293,381 L 291,383 L 291,384 L 290,385 L 290,386 L 288,388 L 288,389 L 286,391 L 286,392 L 285,393 L 285,394 L 284,395 L 283,395 L 283,396 L 282,397 L 282,398 L 281,399 L 281,400 L 279,402 L 279,404 L 278,405 L 278,406 L 277,407 L 277,408 L 275,410 L 275,411 L 273,413 L 273,414 L 271,416 L 271,417 L 270,418 L 270,419 L 268,421 L 268,422 L 267,423 L 267,424 L 266,425 L 266,426 L 264,428 L 264,429 L 263,430 L 263,431 L 262,432 L 262,433 L 261,434 L 261,435 L 259,437 L 259,438 L 258,439 L 258,440 L 257,441 L 257,442 L 256,443 L 256,444 L 254,446 L 254,447 L 253,448 L 253,449 L 252,450 L 252,452 L 251,453 L 251,454 L 250,455 L 250,456 L 248,458 L 248,459 L 247,460 L 247,461 L 246,462 L 246,463 L 244,465 L 244,466 L 243,467 L 243,468 L 242,469 L 242,470 L 241,471 L 241,472 L 240,473 L 240,474 L 239,475 L 239,476 L 238,477 L 238,478 L 237,479 L 237,480 L 235,482 L 235,483 L 234,484 L 234,485 L 233,486 L 233,487 L 232,488 L 232,489 L 231,490 L 231,491 L 230,492 L 230,493 L 229,494 L 229,495 L 228,496 L 228,499 L 226,501 L 226,503 L 225,504 L 225,505 L 224,506 L 224,507 L 223,508 L 223,509 L 222,510 L 222,511 L 221,512 L 221,513 L 220,514 L 220,515 L 218,517 L 218,518 L 217,519 L 217,521 L 216,522 L 216,523 L 215,524 L 215,525 L 214,526 L 214,527 L 213,528 L 213,529 L 212,530 L 212,531 L 211,532 L 211,534 L 210,535 L 210,536 L 209,537 L 209,538 L 208,539 L 208,540 L 207,541 L 207,543 L 206,544 L 206,545 L 205,546 L 205,547 L 204,548 L 204,549 L 203,550 L 203,552 L 202,553 L 202,554 L 201,555 L 201,556 L 200,557 L 200,560 L 199,561 L 199,562 L 197,564 L 197,566 L 196,567 L 196,568 L 195,569 L 195,570 L 194,571 L 194,573 L 193,574 L 193,575 L 192,576 L 192,578 L 191,579 L 191,580 L 190,581 L 190,582 L 189,583 L 189,585 L 188,586 L 188,587 L 187,588 L 187,590 L 186,591 L 186,592 L 185,593 L 185,595 L 183,597 L 183,599 L 182,600 L 182,601 L 181,602 L 181,604 L 180,605 L 180,606 L 179,607 L 179,609 L 178,610 L 178,611 L 177,612 L 177,614 L 176,615 L 176,618 L 175,619 L 175,620 L 174,621 L 174,623 L 173,624 L 173,625 L 172,626 L 172,628 L 171,629 L 171,631 L 170,632 L 170,633 L 169,634 L 169,636 L 168,637 L 168,638 L 167,639 L 167,641 L 166,642 L 166,643 L 165,644 L 165,645 L 164,646 L 164,648 L 163,649 L 163,650 L 162,651 L 162,653 L 161,654 L 161,656 L 160,657 L 160,658 L 159,659 L 159,661 L 158,662 L 158,664 L 157,665 L 157,667 L 156,668 L 156,669 L 155,670 L 155,672 L 154,673 L 154,675 L 152,677 L 152,679 L 151,680 L 151,682 L 150,683 L 150,684 L 149,685 L 149,689 L 148,690 L 148,692 L 147,693 L 147,694 L 146,695 L 146,697 L 145,698 L 145,700 L 144,701 L 144,703 L 143,704 L 143,705 L 142,706 L 142,708 L 141,709 L 141,711 L 140,712 L 140,714 L 139,715 L 139,716 L 138,717 L 138,718 L 137,719 L 137,721 L 136,722 L 136,724 L 135,725 L 135,727 L 134,728 L 134,729 L 133,730 L 133,732 L 132,733 L 132,735 L 131,736 L 131,738 L 130,739 L 130,740 L 129,741 L 129,743 L 128,744 L 128,746 L 127,747 L 127,749 L 126,750 L 126,752 L 125,753 L 125,754 L 124,755 L 124,757 L 123,758 L 123,762 L 122,763 L 122,764 L 121,765 L 121,766 L 120,767 L 120,769 L 119,770 L 119,772 L 118,773 L 118,774 L 117,775 L 117,777 L 116,778 L 116,780 L 115,781 L 115,783 L 114,784 L 114,786 L 113,787 L 113,788 L 112,789 L 112,791 L 111,792 L 111,794 L 110,795 L 110,796 L 109,797 L 109,800 L 119,800 L 120,799 L 130,799 L 131,798 L 141,798 L 142,797 L 150,797 L 151,796 L 158,796 L 159,795 L 165,795 L 166,794 L 171,794 L 172,793 L 175,793 L 176,792 L 180,792 L 181,791 L 183,791 L 184,790 L 185,790 L 186,789 L 188,789 L 189,788 L 191,788 L 192,787 L 193,787 L 194,786 L 195,786 L 197,784 L 198,784 L 204,778 L 204,777 L 205,776 L 205,775 L 206,774 L 206,772 L 207,771 L 207,769 L 209,767 L 209,765 L 210,764 L 210,761 L 211,760 L 211,758 L 212,757 L 212,756 L 213,755 L 213,753 L 214,752 L 214,751 L 215,750 L 215,748 L 216,747 L 216,745 L 217,744 L 217,743 L 218,742 L 218,740 L 219,739 L 219,737 L 220,736 L 220,734 L 221,733 L 221,731 L 222,730 L 222,729 L 223,728 L 223,727 L 224,726 L 224,724 L 225,723 L 225,721 L 226,720 L 226,718 L 227,717 L 227,716 L 228,715 L 228,713 L 229,712 L 229,710 L 230,709 L 230,707 L 231,706 L 231,704 L 232,703 L 232,701 L 233,700 L 233,699 L 234,698 L 234,696 L 235,695 L 235,691 L 236,690 L 236,688 L 237,687 L 237,685 L 238,684 L 238,683 L 239,682 L 239,681 L 240,680 L 240,678 L 241,677 L 241,675 L 242,674 L 242,672 L 243,671 L 243,669 L 244,668 L 244,667 L 245,666 L 245,664 L 246,663 L 246,661 L 247,660 L 247,658 L 248,657 L 248,655 L 249,654 L 249,653 L 250,652 L 250,651 L 251,650 L 251,648 L 252,647 L 252,645 L 253,644 L 253,643 L 254,642 L 254,640 L 255,639 L 255,637 L 256,636 L 256,635 L 257,634 L 257,632 L 258,631 L 258,629 L 259,628 L 259,627 L 260,626 L 260,624 L 261,623 L 261,621 L 262,620 L 262,617 L 263,616 L 263,615 L 264,614 L 264,612 L 265,611 L 265,610 L 266,609 L 266,607 L 267,606 L 267,605 L 268,604 L 268,603 L 269,602 L 269,601 L 270,600 L 270,598 L 271,597 L 271,596 L 272,595 L 272,593 L 273,592 L 273,591 L 274,590 L 274,589 L 275,588 L 275,586 L 276,585 L 276,584 L 277,583 L 277,582 L 278,581 L 278,579 L 279,578 L 279,576 L 280,575 L 280,574 L 282,572 L 282,570 L 284,568 L 284,567 L 285,566 L 285,564 L 287,562 L 287,561 L 291,557 L 294,557 L 304,567 L 304,568 L 311,575 L 311,576 L 318,583 L 318,584 L 324,590 L 324,591 L 329,596 L 329,597 L 336,604 L 336,605 L 343,612 L 343,613 L 352,622 L 352,623 L 362,633 L 362,634 L 402,674 L 403,674 L 413,684 L 414,684 L 422,692 L 423,692 L 430,699 L 431,699 L 436,704 L 437,704 L 442,709 L 443,709 L 447,713 L 448,713 L 453,718 L 454,718 L 458,722 L 459,722 L 463,726 L 464,726 L 467,729 L 468,729 L 471,732 L 472,732 L 476,736 L 477,736 L 480,739 L 481,739 L 484,742 L 485,742 L 487,744 L 487,745 L 488,745 L 490,747 L 491,747 L 495,751 L 496,751 L 498,753 L 500,753 L 502,755 L 503,755 L 505,757 L 505,758 L 507,758 L 508,759 L 508,760 L 509,760 L 512,763 L 513,763 L 516,766 L 517,766 L 519,768 L 520,768 L 522,770 L 523,770 L 526,773 L 527,773 L 529,775 L 530,775 L 532,777 L 533,777 L 535,779 L 536,779 L 538,781 L 539,781 L 541,783 L 542,783 L 544,785 L 545,785 L 547,787 L 548,787 L 550,789 L 551,789 L 553,791 L 554,791 L 556,793 L 557,793 L 559,795 L 560,795 L 562,797 L 563,797 L 565,799 L 566,799 L 568,801 L 569,801 L 571,803 L 572,803 L 573,804 L 574,804 L 575,805 L 576,805 L 578,807 L 579,807 L 581,809 L 582,809 L 584,811 L 585,811 L 588,814 L 589,814 L 591,816 L 592,816 L 593,817 L 594,817 L 596,819 L 597,819 L 598,820 L 599,820 L 601,822 L 602,822 L 604,824 L 605,824 L 606,825 L 607,825 L 609,827 L 610,827 L 611,828 L 612,828 L 614,830 L 615,830 L 616,831 L 618,831 L 620,833 L 621,833 L 622,834 L 623,834 L 625,836 L 626,836 L 627,837 L 628,837 L 629,838 L 630,838 L 632,840 L 633,840 L 634,841 L 635,841 L 636,842 L 637,842 L 639,844 L 640,844 L 642,846 L 643,846 L 644,847 L 645,847 L 647,849 L 648,849 L 649,850 L 650,850 L 651,851 L 652,851 L 653,852 L 654,852 L 655,853 L 656,853 L 657,854 L 658,854 L 660,856 L 661,856 L 662,857 L 664,857 L 665,858 L 666,858 L 667,859 L 668,859 L 669,860 L 670,860 L 671,861 L 672,861 L 673,862 L 674,862 L 675,863 L 676,863 L 677,864 L 678,864 L 679,865 L 680,865 L 681,866 L 682,866 L 683,867 L 684,867 L 685,868 L 686,868 L 687,869 L 688,869 L 689,870 L 690,870 L 691,871 L 692,871 L 693,872 L 694,872 L 696,874 L 697,874 L 698,875 L 699,875 L 700,876 L 701,876 L 702,877 L 704,877 L 705,878 L 706,878 L 707,879 L 708,879 L 709,880 L 710,880 L 711,881 L 712,881 L 713,882 L 716,882 L 717,883 L 718,883 L 719,884 L 720,884 L 721,885 L 722,885 L 723,886 L 725,886 L 726,887 L 727,887 L 728,888 L 729,888 L 730,889 L 731,889 L 732,890 L 734,890 L 735,891 L 736,891 L 737,892 L 739,892 L 740,893 L 741,893 L 742,894 L 743,894 L 744,895 L 745,895 L 746,896 L 747,896 L 748,897 L 750,897 L 751,898 L 752,898 L 753,899 L 755,899 L 756,900 L 757,900 L 758,901 L 760,901 L 761,902 L 762,902 L 763,903 L 765,903 L 766,904 L 767,904 L 768,905 L 770,905 L 771,906 L 774,906 L 775,907 L 777,907 L 778,908 L 780,908 L 781,909 L 783,909 L 784,910 L 786,910 L 787,911 L 788,911 L 789,912 L 791,912 L 792,913 L 793,913 L 794,914 L 796,914 L 797,915 L 800,915 L 801,916 L 804,916 L 805,917 L 808,917 L 809,918 L 815,918 L 816,919 L 838,919 L 839,918 L 844,918 L 845,917 L 849,917 L 850,916 L 854,916 L 855,915 L 858,915 L 859,914 L 862,914 L 863,913 L 866,913 L 867,912 L 870,912 L 871,911 L 875,911 L 876,910 L 879,910 L 880,909 L 883,909 L 884,908 L 886,908 L 887,907 L 887,905 L 885,905 L 884,904 L 883,904 L 882,903 L 880,903 L 879,902 L 878,902 L 877,901 L 875,901 L 874,900 L 873,900 L 872,899 L 869,899 L 868,898 L 867,898 L 866,897 L 864,897 L 863,896 L 862,896 L 860,894 L 858,894 L 857,893 L 856,893 L 855,892 L 854,892 L 853,891 L 851,891 L 850,890 L 849,890 L 848,889 L 847,889 L 846,888 L 844,888 L 843,887 L 842,887 L 841,886 L 840,886 L 839,885 L 838,885 L 837,884 L 835,884 L 834,883 L 833,883 L 832,882 L 831,882 L 830,881 L 829,881 L 828,880 L 826,880 L 825,879 L 824,879 L 822,877 L 821,877 L 820,876 L 819,876 L 818,875 L 816,875 L 815,874 L 814,874 L 813,873 L 811,873 L 810,872 L 809,872 L 808,871 L 807,871 L 806,870 L 805,870 L 804,869 L 803,869 L 802,868 L 800,868 L 799,867 L 798,867 L 797,866 L 796,866 L 795,865 L 794,865 L 793,864 L 792,864 L 791,863 L 790,863 L 789,862 L 788,862 L 787,861 L 786,861 L 785,860 L 784,860 L 783,859 L 782,859 L 781,858 L 780,858 L 779,857 L 778,857 L 777,856 L 776,856 L 774,854 L 773,854 L 772,853 L 771,853 L 770,852 L 769,852 L 768,851 L 766,851 L 764,849 L 763,849 L 762,848 L 761,848 L 760,847 L 759,847 L 758,846 L 757,846 L 756,845 L 755,845 L 754,844 L 753,844 L 752,843 L 751,843 L 750,842 L 749,842 L 748,841 L 747,841 L 746,840 L 745,840 L 744,839 L 743,839 L 741,837 L 740,837 L 739,836 L 738,836 L 737,835 L 736,835 L 735,834 L 734,834 L 733,833 L 732,833 L 730,831 L 729,831 L 728,830 L 727,830 L 726,829 L 725,829 L 724,828 L 723,828 L 721,826 L 720,826 L 719,825 L 718,825 L 717,824 L 716,824 L 715,823 L 714,823 L 712,821 L 710,821 L 707,818 L 705,818 L 703,816 L 702,816 L 701,815 L 700,815 L 697,812 L 696,812 L 695,811 L 694,811 L 692,809 L 691,809 L 690,808 L 689,808 L 687,806 L 686,806 L 685,805 L 684,805 L 682,803 L 681,803 L 680,802 L 679,802 L 677,800 L 676,800 L 674,798 L 673,798 L 672,797 L 671,797 L 670,796 L 669,796 L 667,794 L 666,794 L 665,793 L 664,793 L 662,791 L 661,791 L 659,789 L 658,789 L 656,787 L 655,787 L 653,785 L 652,785 L 650,783 L 649,783 L 648,782 L 648,781 L 647,781 L 645,779 L 644,779 L 642,777 L 641,777 L 639,775 L 638,775 L 636,773 L 635,773 L 634,772 L 632,772 L 631,771 L 631,770 L 630,770 L 629,769 L 628,769 L 624,765 L 623,765 L 621,763 L 620,763 L 618,761 L 617,761 L 614,758 L 613,758 L 611,756 L 610,756 L 607,753 L 606,753 L 603,750 L 602,750 L 600,748 L 599,748 L 596,745 L 595,745 L 593,743 L 592,743 L 589,740 L 588,740 L 584,736 L 583,736 L 580,733 L 579,733 L 576,730 L 575,730 L 571,726 L 570,726 L 566,722 L 565,722 L 562,719 L 561,719 L 557,715 L 556,715 L 551,710 L 550,710 L 545,705 L 544,705 L 539,700 L 539,699 L 537,699 L 531,693 L 530,693 L 523,686 L 522,686 L 519,683 L 519,682 L 517,680 L 516,680 L 515,679 L 515,678 L 514,677 L 513,677 L 508,672 L 507,672 L 506,671 L 506,670 L 505,669 L 504,669 L 501,666 L 500,666 L 495,661 L 495,660 L 494,660 L 493,659 L 493,658 L 480,645 L 479,645 L 477,643 L 476,643 L 469,636 L 469,635 L 468,635 L 467,634 L 467,633 L 463,629 L 463,628 L 453,618 L 452,618 L 444,610 L 444,609 L 439,604 L 439,603 L 435,599 L 435,598 L 434,598 L 431,595 L 431,594 L 430,594 L 427,591 L 427,590 L 422,585 L 422,584 L 417,579 L 417,578 L 413,574 L 413,573 L 409,569 L 409,568 L 405,564 L 405,563 L 402,560 L 402,559 L 398,555 L 398,554 L 395,551 L 395,550 L 392,547 L 392,546 L 391,545 L 391,544 L 388,541 L 388,540 L 386,538 L 386,537 L 384,535 L 384,534 L 381,531 L 381,530 L 379,528 L 379,527 L 377,525 L 377,524 L 375,522 L 375,521 L 373,519 L 373,518 L 372,517 L 372,516 L 368,512 L 368,511 L 367,510 L 367,509 L 365,507 L 365,506 L 364,505 L 364,504 L 363,503 L 363,501 L 362,501 L 361,500 L 361,499 L 360,498 L 360,497 L 359,496 L 359,495 L 358,494 L 358,493 L 357,492 L 357,490 L 356,489 L 356,483 L 357,482 L 357,481 L 358,480 L 358,479 L 360,477 L 360,476 L 363,473 L 364,473 L 367,470 L 368,470 L 370,468 L 371,468 L 373,466 L 374,466 L 375,465 L 376,465 L 378,463 L 379,463 L 381,461 L 382,461 L 383,460 L 384,460 L 386,458 L 387,458 L 388,457 L 389,457 L 391,455 L 392,455 L 394,453 L 395,453 L 396,452 L 397,452 L 397,451 L 398,450 L 399,450 L 400,449 L 401,449 L 402,448 L 403,448 L 404,447 L 405,447 L 406,446 L 407,446 L 408,445 L 409,445 L 413,441 L 414,441 L 415,440 L 416,440 L 418,438 L 419,438 L 420,437 L 421,437 L 423,435 L 424,435 L 426,433 L 427,433 L 428,432 L 429,432 L 431,430 L 432,430 L 433,429 L 434,429 L 436,427 L 437,427 L 439,425 L 441,425 L 443,423 L 444,423 L 445,422 L 446,422 L 448,420 L 449,420 L 450,419 L 451,419 L 453,417 L 454,417 L 455,416 L 456,416 L 458,414 L 459,414 L 461,412 L 462,412 L 463,411 L 464,411 L 466,409 L 467,409 L 468,408 L 469,408 L 469,407 L 470,406 L 471,406 L 472,405 L 473,405 L 475,403 L 476,403 L 477,402 L 478,402 L 480,400 L 481,400 L 482,399 L 483,399 L 484,398 L 485,398 L 486,397 L 487,397 L 489,395 L 490,395 L 491,394 L 492,394 L 493,393 L 494,393 L 496,391 L 497,391 L 498,390 L 499,390 L 501,388 L 502,388 L 503,387 L 504,387 L 506,385 L 507,385 L 508,384 L 509,384 L 511,382 L 512,382 L 513,381 L 514,381 L 515,380 L 516,380 L 518,378 L 519,378 L 520,377 L 521,377 L 523,375 L 524,375 L 525,374 L 527,374 L 529,372 L 530,372 L 531,371 L 532,371 L 533,370 L 534,370 L 536,368 L 537,368 L 539,366 L 540,366 L 542,364 L 543,364 L 544,363 L 545,363 L 547,361 L 548,361 L 549,360 L 550,360 L 551,359 L 552,359 L 553,358 L 554,358 L 556,356 L 557,356 L 558,355 L 559,355 L 560,354 L 561,354 L 563,352 L 564,352 L 565,351 L 566,351 L 567,350 L 568,350 L 569,349 L 570,349 L 572,347 L 574,347 L 575,346 L 576,346 L 577,345 L 578,345 L 580,343 L 581,343 L 582,342 L 583,342 L 584,341 L 585,341 L 586,340 L 587,340 L 589,338 L 590,338 L 591,337 L 592,337 L 593,336 L 594,336 L 596,334 L 597,334 L 599,332 L 600,332 L 601,331 L 602,331 L 603,330 L 604,330 L 605,329 L 606,329 L 607,328 L 608,328 L 609,327 L 610,327 L 611,326 L 612,326 L 614,324 L 615,324 L 616,323 L 618,323 L 619,322 L 620,322 L 621,321 L 622,321 L 623,320 L 624,320 L 625,319 L 626,319 L 627,318 L 628,318 L 629,317 L 630,317 L 631,316 L 632,316 L 634,314 L 635,314 L 636,313 L 637,313 L 638,312 L 639,312 L 640,311 L 641,311 L 642,310 L 643,310 L 644,309 L 645,309 L 646,308 L 647,308 L 648,307 L 649,307 L 651,305 L 652,305 L 653,304 L 654,304 L 655,303 L 656,303 L 657,302 L 658,302 L 659,301 L 660,301 L 661,300 L 662,300 L 663,299 L 664,299 L 665,298 L 667,298 L 669,296 L 671,296 L 672,295 L 673,295 L 674,294 L 676,294 L 677,293 L 678,293 L 679,292 L 680,292 L 681,291 L 682,291 L 683,290 L 684,290 L 685,289 L 686,289 L 687,288 L 688,288 L 689,287 L 690,287 L 691,286 L 692,286 L 693,285 L 695,285 L 696,284 L 697,284 L 698,283 L 699,283 L 700,282 L 701,282 L 703,280 L 704,280 L 705,279 L 707,279 L 708,278 L 709,278 L 710,277 L 711,277 L 712,276 L 713,276 L 714,275 L 716,275 L 717,274 L 718,274 L 719,273 L 721,273 L 722,272 L 724,272 L 725,271 L 726,271 L 727,270 L 728,270 L 729,269 L 731,269 L 732,268 L 733,268 L 734,267 L 735,267 L 736,266 L 738,266 L 739,265 L 740,265 L 741,264 L 742,264 L 743,263 L 745,263 L 746,262 L 747,262 L 748,261 L 749,261 L 750,260 L 751,260 L 752,259 L 753,259 L 754,258 L 756,258 L 757,257 L 758,257 L 759,256 L 761,256 L 762,255 L 763,255 L 764,254 L 766,254 L 767,253 L 768,253 L 769,252 L 771,252 L 772,251 L 774,251 L 775,250 L 776,250 L 777,249 L 779,249 L 780,248 L 782,248 L 783,247 L 786,247 L 787,246 L 788,246 L 789,245 L 791,245 L 792,244 L 793,244 L 794,243 L 796,243 L 797,242 L 798,242 L 799,241 L 801,241 L 802,240 L 804,240 L 805,239 L 807,239 L 808,238 L 810,238 L 811,237 L 812,237 L 813,236 L 815,236 L 816,235 L 818,235 L 819,234 L 822,234 L 823,233 L 825,233 L 826,232 L 828,232 L 829,231 L 830,231 L 831,230 L 834,230 L 835,229 L 837,229 L 838,228 L 840,228 L 841,227 L 844,227 L 845,226 L 847,226 L 848,225 L 851,225 L 852,224 L 854,224 L 855,223 L 858,223 L 859,222 L 861,222 L 862,221 L 865,221 L 866,220 L 870,220 L 871,219 L 873,219 L 874,218 L 876,218 L 877,217 L 880,217 L 881,216 L 883,216 L 884,215 L 886,215 L 887,214 L 889,214 L 890,213 L 892,213 L 893,212 L 895,212 L 896,211 L 898,211 L 899,210 L 900,210 L 901,209 L 903,209 L 904,208 L 906,208 L 908,206 L 910,206 L 911,205 L 912,205 L 913,204 L 916,204 L 917,203 L 917,200 L 916,199 L 916,198 L 908,198 L 907,199 L 903,199 L 902,200 L 899,200 L 898,201 L 895,201 L 894,202 L 890,202 L 889,203 L 885,203 L 884,204 L 881,204 L 880,205 L 876,205 L 875,206 L 872,206 L 871,207 L 868,207 L 867,208 L 864,208 L 863,209 L 860,209 L 859,210 L 856,210 L 855,211 L 849,211 L 848,212 L 847,212 L 846,213 L 841,213 L 840,214 L 837,214 L 836,215 L 834,215 L 833,216 L 830,216 L 829,217 L 826,217 L 825,218 L 824,218 L 823,219 L 820,219 L 819,220 L 816,220 L 815,221 L 813,221 L 812,222 L 809,222 L 808,223 L 806,223 L 805,224 L 803,224 L 802,225 L 799,225 L 798,226 L 796,226 L 795,227 L 794,227 L 793,228 L 790,228 L 789,229 L 787,229 L 786,230 L 784,230 L 783,231 L 781,231 L 780,232 L 778,232 L 777,233 L 775,233 L 774,234 L 772,234 L 771,235 L 769,235 L 768,236 L 766,236 L 765,237 L 761,237 L 760,238 L 758,238 L 757,239 L 755,239 L 754,240 L 752,240 L 751,241 L 749,241 L 748,242 L 747,242 L 746,243 L 744,243 L 743,244 L 741,244 L 740,245 L 738,245 L 737,246 L 736,246 L 735,247 L 733,247 L 732,248 L 730,248 L 729,249 L 727,249 L 726,250 L 725,250 L 724,251 L 722,251 L 721,252 L 719,252 L 718,253 L 717,253 L 716,254 L 715,254 L 714,255 L 712,255 L 711,256 L 710,256 L 709,257 L 707,257 L 706,258 L 704,258 L 703,259 L 702,259 L 701,260 L 699,260 L 698,261 L 697,261 L 696,262 L 693,262 L 692,263 L 690,263 L 689,264 L 688,264 L 687,265 L 685,265 L 684,266 L 683,266 L 682,267 L 680,267 L 679,268 L 678,268 L 677,269 L 675,269 L 674,270 L 673,270 L 672,271 L 670,271 L 669,272 L 668,272 L 666,274 L 664,274 L 663,275 L 662,275 L 661,276 L 659,276 L 658,277 L 657,277 L 656,278 L 655,278 L 654,279 L 652,279 L 651,280 L 650,280 L 649,281 L 648,281 L 647,282 L 645,282 L 644,283 L 643,283 L 642,284 L 641,284 L 640,285 L 638,285 L 637,286 L 636,286 L 635,287 L 633,287 L 633,288 L 632,289 L 628,289 L 626,291 L 624,291 L 623,292 L 621,292 L 619,294 L 618,294 L 617,295 L 616,295 L 615,296 L 614,296 L 613,297 L 611,297 L 610,298 L 609,298 L 608,299 L 607,299 L 606,300 L 605,300 L 604,301 L 603,301 L 602,302 L 601,302 L 600,303 L 598,303 L 597,304 L 596,304 L 595,305 L 594,305 L 593,306 L 592,306 L 591,307 L 590,307 L 589,308 L 588,308 L 587,309 L 586,309 L 585,310 L 584,310 L 583,311 L 582,311 L 581,312 L 580,312 L 579,313 L 577,313 L 576,314 L 575,314 L 574,315 L 573,315 L 572,316 L 570,316 L 568,318 L 567,318 L 566,319 L 564,319 L 563,320 L 562,320 L 561,321 L 560,321 L 559,322 L 558,322 L 557,323 L 556,323 L 555,324 L 554,324 L 553,325 L 552,325 L 551,326 L 550,326 L 549,327 L 548,327 L 547,328 L 546,328 L 545,329 L 544,329 L 543,330 L 542,330 L 541,331 L 540,331 L 539,332 L 538,332 L 537,333 L 536,333 L 535,334 L 534,334 L 532,336 L 531,336 L 530,337 L 529,337 L 528,338 L 526,338 L 525,339 L 524,339 L 523,340 L 521,340 L 519,342 L 518,342 L 517,343 L 516,343 L 515,344 L 514,344 L 513,345 L 512,345 L 511,346 L 510,346 L 509,347 L 508,347 L 507,348 L 506,348 L 505,349 L 504,349 L 503,350 L 502,350 L 501,351 L 500,351 L 499,352 L 498,352 L 497,353 L 496,353 L 495,354 L 494,354 L 493,355 L 492,355 L 491,356 L 490,356 L 489,357 L 488,357 L 487,358 L 486,358 L 485,359 L 484,359 L 482,361 L 481,361 L 480,362 L 479,362 L 477,364 L 476,364 L 475,365 L 472,365 L 470,367 L 469,367 L 468,368 L 466,368 L 464,370 L 463,370 L 462,371 L 461,371 L 459,373 L 458,373 L 457,374 L 456,374 L 455,375 L 454,375 L 453,376 L 452,376 L 451,377 L 450,377 L 449,378 L 448,378 L 447,379 L 446,379 L 445,380 L 444,380 L 443,381 L 442,381 L 440,383 L 439,383 L 438,384 L 437,384 L 436,385 L 435,385 L 434,386 L 433,386 L 432,387 L 431,387 L 430,388 L 429,388 L 428,389 L 427,389 L 426,390 L 425,390 L 424,391 L 423,391 L 422,392 L 421,392 L 420,393 L 419,393 L 418,394 L 417,394 L 416,395 L 415,395 L 414,396 L 413,396 L 413,397 L 412,398 L 411,398 L 410,399 L 409,399 L 408,400 L 407,400 L 406,401 L 405,401 L 404,402 L 403,402 L 402,403 L 401,403 L 399,405 L 398,405 L 397,406 L 396,406 L 395,407 L 394,407 L 393,408 L 392,408 L 391,409 L 390,409 L 389,410 L 388,410 L 386,412 L 385,412 L 384,413 L 383,413 L 382,414 L 381,414 L 380,415 L 378,415 L 376,417 L 375,417 L 374,418 L 373,418 L 372,419 L 371,419 L 370,420 L 369,420 L 368,421 L 367,421 L 365,423 L 364,423 L 363,424 L 362,424 L 361,425 L 359,425 L 358,424 L 358,422 L 359,421 L 359,419 L 360,418 L 360,417 L 362,415 L 362,413 L 364,411 L 364,408 L 365,407 L 365,405 L 367,403 L 367,402 L 368,401 L 368,400 L 369,399 L 369,398 L 370,397 L 370,396 L 371,395 L 371,394 L 372,393 L 372,392 L 373,391 L 373,390 L 374,389 L 374,388 L 375,387 L 375,386 L 376,385 L 376,384 L 378,382 L 378,381 L 379,380 L 379,379 L 380,378 L 380,377 L 381,376 L 381,375 L 382,374 L 382,373 L 385,370 L 385,368 L 386,367 L 386,366 L 388,364 L 388,363 L 389,362 L 389,361 L 391,359 L 391,357 L 393,355 L 393,354 L 395,352 L 395,351 L 397,349 L 397,348 L 399,346 L 399,345 L 401,343 L 401,342 L 403,340 L 403,339 L 404,338 L 404,337 L 406,335 L 406,334 L 408,332 L 408,331 L 410,329 L 410,328 L 412,326 L 412,325 L 414,323 L 414,322 L 417,319 L 417,318 L 418,317 L 418,316 L 420,314 L 420,313 L 423,310 L 423,309 L 426,306 L 426,305 L 428,303 L 428,302 L 431,299 L 431,298 L 434,295 L 434,294 L 435,293 L 436,293 L 436,292 L 438,290 L 438,289 L 439,288 L 440,288 L 440,287 L 441,286 L 441,285 L 443,283 L 443,282 L 447,278 L 447,277 L 450,274 L 450,273 L 451,272 L 452,272 L 454,270 L 454,269 L 458,265 L 458,264 L 463,259 L 463,258 L 467,254 L 467,253 L 471,249 L 471,248 L 476,243 L 476,242 L 481,237 L 481,236 L 486,231 L 486,230 L 492,224 L 492,223 L 496,219 L 496,218 L 502,212 L 502,211 L 508,205 L 508,204 L 513,199 L 513,198 L 519,192 L 519,191 L 523,187 L 523,186 L 528,181 L 528,180 L 533,175 L 533,174 L 538,169 L 538,168 L 544,162 L 544,160 Z" fill="#000000" fill-rule="evenodd"/><path d="M 531,45 L 530,46 L 516,46 L 515,47 L 506,47 L 505,48 L 497,48 L 496,49 L 490,49 L 489,50 L 483,50 L 482,51 L 477,51 L 476,52 L 471,52 L 470,53 L 465,53 L 464,54 L 460,54 L 459,55 L 456,55 L 455,56 L 451,56 L 450,57 L 446,57 L 445,58 L 442,58 L 441,59 L 438,59 L 437,60 L 430,60 L 429,61 L 426,61 L 425,62 L 423,62 L 422,63 L 419,63 L 418,64 L 415,64 L 414,65 L 412,65 L 411,66 L 409,66 L 408,67 L 406,67 L 405,68 L 403,68 L 402,69 L 399,69 L 398,70 L 396,70 L 395,71 L 393,71 L 392,72 L 390,72 L 389,73 L 387,73 L 386,74 L 384,74 L 383,75 L 382,75 L 381,76 L 380,76 L 379,77 L 377,77 L 376,78 L 375,78 L 374,79 L 372,79 L 371,80 L 369,80 L 368,81 L 367,81 L 366,82 L 364,82 L 363,83 L 362,83 L 361,84 L 358,84 L 357,85 L 356,85 L 355,86 L 354,86 L 353,87 L 351,87 L 350,88 L 349,88 L 348,89 L 347,89 L 346,90 L 345,90 L 344,91 L 343,91 L 342,92 L 340,92 L 339,93 L 338,93 L 337,94 L 336,94 L 335,95 L 334,95 L 332,97 L 331,97 L 330,98 L 329,98 L 328,99 L 327,99 L 326,100 L 325,100 L 324,101 L 323,101 L 321,103 L 320,103 L 319,104 L 318,104 L 317,105 L 316,105 L 315,106 L 314,106 L 313,107 L 312,107 L 311,108 L 310,108 L 308,110 L 306,110 L 305,111 L 304,111 L 302,113 L 301,113 L 300,114 L 299,114 L 297,116 L 296,116 L 295,117 L 294,117 L 292,119 L 291,119 L 290,120 L 289,120 L 287,122 L 286,122 L 284,124 L 283,124 L 281,126 L 280,126 L 279,127 L 278,127 L 274,131 L 273,131 L 271,133 L 270,133 L 268,135 L 267,135 L 265,137 L 263,137 L 259,141 L 258,141 L 255,144 L 254,144 L 251,147 L 250,147 L 247,150 L 246,150 L 243,153 L 242,153 L 239,156 L 238,156 L 235,159 L 234,159 L 232,161 L 231,161 L 228,164 L 227,164 L 224,167 L 223,167 L 218,172 L 217,172 L 195,194 L 195,195 L 186,204 L 186,205 L 179,212 L 179,213 L 174,218 L 174,219 L 170,223 L 170,224 L 165,229 L 165,230 L 161,234 L 161,235 L 158,238 L 158,239 L 154,243 L 154,244 L 149,249 L 149,251 L 146,254 L 146,255 L 144,257 L 144,258 L 141,261 L 141,262 L 136,267 L 136,268 L 134,270 L 134,271 L 131,274 L 131,275 L 129,277 L 129,278 L 127,280 L 127,281 L 125,283 L 125,284 L 124,285 L 124,286 L 122,288 L 122,289 L 120,291 L 120,292 L 119,293 L 119,294 L 117,296 L 117,297 L 115,299 L 115,300 L 114,301 L 114,302 L 112,304 L 112,305 L 111,306 L 111,307 L 109,309 L 109,310 L 108,311 L 108,312 L 106,314 L 106,315 L 105,316 L 105,317 L 104,318 L 104,319 L 101,322 L 101,323 L 100,324 L 100,325 L 99,326 L 99,328 L 97,330 L 97,332 L 96,333 L 96,334 L 95,335 L 95,336 L 94,337 L 94,338 L 93,339 L 93,340 L 92,341 L 92,342 L 91,343 L 91,344 L 90,345 L 90,346 L 89,347 L 89,348 L 88,349 L 88,350 L 87,351 L 87,352 L 86,353 L 86,354 L 85,355 L 85,357 L 84,358 L 84,359 L 83,360 L 83,361 L 82,362 L 82,364 L 81,365 L 81,366 L 80,367 L 80,369 L 78,371 L 78,373 L 77,374 L 77,375 L 76,376 L 76,378 L 75,379 L 75,381 L 74,382 L 74,384 L 73,385 L 73,389 L 71,391 L 71,395 L 70,396 L 70,398 L 69,399 L 69,402 L 68,403 L 68,405 L 67,406 L 67,409 L 66,410 L 66,412 L 65,413 L 65,415 L 64,416 L 64,419 L 63,420 L 63,424 L 62,425 L 62,428 L 61,429 L 61,433 L 60,434 L 60,437 L 59,438 L 59,442 L 58,443 L 58,447 L 57,448 L 57,453 L 56,454 L 56,459 L 55,460 L 55,467 L 54,468 L 54,474 L 53,475 L 53,483 L 52,484 L 52,495 L 51,496 L 51,511 L 50,512 L 50,561 L 51,562 L 51,579 L 52,580 L 52,593 L 53,594 L 53,603 L 54,604 L 54,614 L 55,615 L 55,622 L 56,623 L 56,629 L 57,630 L 57,635 L 58,636 L 58,641 L 59,642 L 59,646 L 60,647 L 60,652 L 61,653 L 61,655 L 62,656 L 62,660 L 63,661 L 63,664 L 64,665 L 64,668 L 65,669 L 65,672 L 66,673 L 66,676 L 67,677 L 67,679 L 68,680 L 68,682 L 69,683 L 69,685 L 70,686 L 70,688 L 71,689 L 71,691 L 72,692 L 72,696 L 73,697 L 73,700 L 74,701 L 74,702 L 75,703 L 75,705 L 76,706 L 76,708 L 77,709 L 77,711 L 78,712 L 78,713 L 79,714 L 79,716 L 80,717 L 80,719 L 81,720 L 81,721 L 82,722 L 82,724 L 83,725 L 83,726 L 84,727 L 84,728 L 85,729 L 85,730 L 86,731 L 86,732 L 87,733 L 87,734 L 88,735 L 88,737 L 89,738 L 89,739 L 90,740 L 90,741 L 91,742 L 91,743 L 92,744 L 92,745 L 93,746 L 93,748 L 94,749 L 94,750 L 95,751 L 95,752 L 96,753 L 96,754 L 97,755 L 97,757 L 98,758 L 98,760 L 99,761 L 102,761 L 103,760 L 104,760 L 105,759 L 106,759 L 109,756 L 109,755 L 110,754 L 110,753 L 111,752 L 111,750 L 112,749 L 112,747 L 113,746 L 113,745 L 114,744 L 114,742 L 115,741 L 115,739 L 116,738 L 116,736 L 117,735 L 117,733 L 118,732 L 118,731 L 119,730 L 119,729 L 120,728 L 120,726 L 121,725 L 121,723 L 122,722 L 122,720 L 123,719 L 123,717 L 124,716 L 124,714 L 125,713 L 125,711 L 126,710 L 126,708 L 127,707 L 127,705 L 128,704 L 128,702 L 129,701 L 129,699 L 130,698 L 130,696 L 131,695 L 131,694 L 132,693 L 132,686 L 133,685 L 133,684 L 134,683 L 134,680 L 135,679 L 135,675 L 136,674 L 136,671 L 137,670 L 137,665 L 138,664 L 138,659 L 139,658 L 139,652 L 140,651 L 140,618 L 139,617 L 139,611 L 138,610 L 138,605 L 137,604 L 137,600 L 136,599 L 136,595 L 135,594 L 135,589 L 134,588 L 134,585 L 133,584 L 133,574 L 132,573 L 132,567 L 131,566 L 131,558 L 130,557 L 130,545 L 129,544 L 129,515 L 130,514 L 130,500 L 131,499 L 131,491 L 132,490 L 132,479 L 133,478 L 133,471 L 134,470 L 134,466 L 135,465 L 135,460 L 136,459 L 136,455 L 137,454 L 137,452 L 138,451 L 138,447 L 139,446 L 139,443 L 140,442 L 140,439 L 141,438 L 141,435 L 142,434 L 142,431 L 143,430 L 143,427 L 144,426 L 144,424 L 145,423 L 145,421 L 146,420 L 146,418 L 147,417 L 147,414 L 148,413 L 148,411 L 149,410 L 149,408 L 150,407 L 150,405 L 151,404 L 151,402 L 152,401 L 152,399 L 153,398 L 153,396 L 154,395 L 154,393 L 156,391 L 156,389 L 157,388 L 157,385 L 159,383 L 159,380 L 160,379 L 160,377 L 161,376 L 161,375 L 162,374 L 162,373 L 163,372 L 163,370 L 164,369 L 164,368 L 165,367 L 165,366 L 166,365 L 166,363 L 167,362 L 167,361 L 168,360 L 168,359 L 169,358 L 169,357 L 170,356 L 170,355 L 171,354 L 171,353 L 172,352 L 172,351 L 173,350 L 173,349 L 174,348 L 174,347 L 175,346 L 175,345 L 177,343 L 177,342 L 178,341 L 178,340 L 179,339 L 179,338 L 180,337 L 180,336 L 181,335 L 181,334 L 182,333 L 182,332 L 184,330 L 184,329 L 185,328 L 185,326 L 186,325 L 186,324 L 188,322 L 188,321 L 189,320 L 189,319 L 191,317 L 191,316 L 192,315 L 192,314 L 194,312 L 194,311 L 195,310 L 195,309 L 197,307 L 197,306 L 199,304 L 199,303 L 201,301 L 201,300 L 202,299 L 202,298 L 204,296 L 204,295 L 207,292 L 207,291 L 209,289 L 209,288 L 210,287 L 210,286 L 213,283 L 213,282 L 216,279 L 216,278 L 219,275 L 219,274 L 222,271 L 223,271 L 223,270 L 227,266 L 227,265 L 232,260 L 232,259 L 233,258 L 233,257 L 234,256 L 235,256 L 235,255 L 240,250 L 240,249 L 242,247 L 243,247 L 250,240 L 250,239 L 258,231 L 259,231 L 262,228 L 262,227 L 263,226 L 264,226 L 267,223 L 267,222 L 268,221 L 269,221 L 271,219 L 272,219 L 279,212 L 280,212 L 284,208 L 285,208 L 293,200 L 294,200 L 297,197 L 298,197 L 300,195 L 301,195 L 302,194 L 303,194 L 307,190 L 308,190 L 310,188 L 311,188 L 313,186 L 314,186 L 316,184 L 317,184 L 319,182 L 320,182 L 322,180 L 323,180 L 324,179 L 325,179 L 327,177 L 328,177 L 330,175 L 331,175 L 332,174 L 333,174 L 335,172 L 336,172 L 337,171 L 339,171 L 341,169 L 342,169 L 343,168 L 344,168 L 345,167 L 346,167 L 347,166 L 348,166 L 350,164 L 351,164 L 352,163 L 353,163 L 354,162 L 355,162 L 356,161 L 357,161 L 358,160 L 359,160 L 360,159 L 361,159 L 362,158 L 363,158 L 365,156 L 366,156 L 367,155 L 368,155 L 369,154 L 370,154 L 371,153 L 373,153 L 374,152 L 375,152 L 376,151 L 377,151 L 378,150 L 379,150 L 380,149 L 382,149 L 383,148 L 384,148 L 385,147 L 386,147 L 387,146 L 389,146 L 390,145 L 391,145 L 392,144 L 395,144 L 396,143 L 397,143 L 398,142 L 400,142 L 401,141 L 403,141 L 404,140 L 405,140 L 406,139 L 408,139 L 409,138 L 410,138 L 411,137 L 413,137 L 414,136 L 416,136 L 417,135 L 418,135 L 419,134 L 421,134 L 422,133 L 424,133 L 425,132 L 428,132 L 429,131 L 431,131 L 432,130 L 434,130 L 435,129 L 437,129 L 438,128 L 441,128 L 442,127 L 443,127 L 444,126 L 447,126 L 448,125 L 451,125 L 452,124 L 455,124 L 456,123 L 459,123 L 460,122 L 463,122 L 464,121 L 468,121 L 469,120 L 476,120 L 477,119 L 480,119 L 481,118 L 486,118 L 487,117 L 492,117 L 493,116 L 499,116 L 500,115 L 506,115 L 507,114 L 514,114 L 515,113 L 524,113 L 525,112 L 539,112 L 540,111 L 582,111 L 583,112 L 596,112 L 597,113 L 607,113 L 608,114 L 616,114 L 617,115 L 623,115 L 624,116 L 630,116 L 631,117 L 637,117 L 638,118 L 643,118 L 644,119 L 649,119 L 650,120 L 658,120 L 659,121 L 662,121 L 663,122 L 667,122 L 668,123 L 671,123 L 672,124 L 676,124 L 677,125 L 680,125 L 681,126 L 684,126 L 685,127 L 687,127 L 688,128 L 690,128 L 691,129 L 694,129 L 695,130 L 697,130 L 698,131 L 700,131 L 701,132 L 704,132 L 705,133 L 707,133 L 708,134 L 710,134 L 711,135 L 713,135 L 714,136 L 716,136 L 717,137 L 719,137 L 721,139 L 723,139 L 724,140 L 726,140 L 727,141 L 728,141 L 729,142 L 731,142 L 732,143 L 733,143 L 734,144 L 736,144 L 737,145 L 740,145 L 741,146 L 742,146 L 743,147 L 744,147 L 745,148 L 746,148 L 747,149 L 748,149 L 749,150 L 751,150 L 752,151 L 753,151 L 754,152 L 755,152 L 756,153 L 757,153 L 758,154 L 759,154 L 760,155 L 761,155 L 762,156 L 763,156 L 764,157 L 765,157 L 766,158 L 767,158 L 768,159 L 769,159 L 771,161 L 772,161 L 773,162 L 774,162 L 776,164 L 777,164 L 778,165 L 779,165 L 780,166 L 781,166 L 782,167 L 783,167 L 785,169 L 786,169 L 787,170 L 788,170 L 789,171 L 790,171 L 791,172 L 792,172 L 793,173 L 794,173 L 796,175 L 797,175 L 798,176 L 799,176 L 801,178 L 802,178 L 804,180 L 805,180 L 806,181 L 807,181 L 809,183 L 810,183 L 812,185 L 813,185 L 815,187 L 816,187 L 819,190 L 820,190 L 822,192 L 823,192 L 825,194 L 826,194 L 828,196 L 829,196 L 830,197 L 832,197 L 833,198 L 835,198 L 836,199 L 844,199 L 845,198 L 848,198 L 849,197 L 852,197 L 853,196 L 858,196 L 859,195 L 863,195 L 864,194 L 871,194 L 872,193 L 876,193 L 877,192 L 881,192 L 882,191 L 885,191 L 886,190 L 890,190 L 891,189 L 895,189 L 896,188 L 899,188 L 900,187 L 903,187 L 904,186 L 907,186 L 908,185 L 912,185 L 912,183 L 909,180 L 908,180 L 907,179 L 907,178 L 905,176 L 904,176 L 897,169 L 896,169 L 891,164 L 890,164 L 886,160 L 885,160 L 882,157 L 881,157 L 877,153 L 876,153 L 873,150 L 872,150 L 869,147 L 868,147 L 865,144 L 864,144 L 861,141 L 860,141 L 858,139 L 857,139 L 854,136 L 853,136 L 852,135 L 851,135 L 849,133 L 848,133 L 846,131 L 845,131 L 843,129 L 842,129 L 840,127 L 839,127 L 837,125 L 836,125 L 835,124 L 834,124 L 832,122 L 831,122 L 829,120 L 828,120 L 827,119 L 826,119 L 823,116 L 822,116 L 820,114 L 819,114 L 818,113 L 817,113 L 816,112 L 815,112 L 814,111 L 813,111 L 812,110 L 810,110 L 807,107 L 806,107 L 805,106 L 804,106 L 803,105 L 802,105 L 801,104 L 800,104 L 799,103 L 798,103 L 797,102 L 796,102 L 795,101 L 794,101 L 793,100 L 792,100 L 791,99 L 790,99 L 789,98 L 788,98 L 787,97 L 786,97 L 785,96 L 784,96 L 783,95 L 782,95 L 781,94 L 780,94 L 779,93 L 778,93 L 777,92 L 776,92 L 775,91 L 774,91 L 773,90 L 772,90 L 771,89 L 770,89 L 769,88 L 768,88 L 767,87 L 766,87 L 765,86 L 761,86 L 760,85 L 760,84 L 757,84 L 756,83 L 755,83 L 754,82 L 752,82 L 751,81 L 750,81 L 749,80 L 747,80 L 746,79 L 744,79 L 743,78 L 742,78 L 741,77 L 739,77 L 738,76 L 736,76 L 735,75 L 734,75 L 733,74 L 731,74 L 730,73 L 728,73 L 727,72 L 726,72 L 725,71 L 723,71 L 722,70 L 720,70 L 719,69 L 717,69 L 716,68 L 713,68 L 712,67 L 710,67 L 709,66 L 707,66 L 706,65 L 703,65 L 702,64 L 700,64 L 699,63 L 696,63 L 695,62 L 692,62 L 691,61 L 689,61 L 688,60 L 685,60 L 684,59 L 678,59 L 677,58 L 673,58 L 672,57 L 668,57 L 667,56 L 664,56 L 663,55 L 658,55 L 657,54 L 653,54 L 652,53 L 648,53 L 647,52 L 642,52 L 641,51 L 636,51 L 635,50 L 628,50 L 627,49 L 621,49 L 620,48 L 612,48 L 611,47 L 601,47 L 600,46 L 588,46 L 587,45 Z" fill="#000000" fill-rule="evenodd"/><path d="M 551,0 L 551,1 L 550,2 L 538,2 L 537,3 L 527,3 L 526,4 L 513,4 L 512,5 L 501,5 L 500,6 L 491,6 L 490,7 L 481,7 L 480,8 L 468,8 L 467,9 L 466,9 L 465,10 L 454,10 L 453,11 L 448,11 L 447,12 L 443,12 L 442,13 L 438,13 L 437,14 L 433,14 L 432,15 L 429,15 L 428,16 L 424,16 L 423,17 L 420,17 L 419,18 L 416,18 L 415,19 L 412,19 L 411,20 L 409,20 L 408,21 L 406,21 L 405,22 L 402,22 L 401,23 L 399,23 L 398,24 L 395,24 L 394,25 L 392,25 L 391,26 L 389,26 L 388,27 L 386,27 L 385,28 L 383,28 L 382,29 L 380,29 L 379,30 L 377,30 L 376,31 L 375,31 L 374,32 L 372,32 L 371,33 L 368,33 L 367,34 L 366,34 L 365,35 L 362,35 L 361,36 L 360,36 L 359,37 L 357,37 L 356,38 L 355,38 L 354,39 L 352,39 L 351,40 L 350,40 L 349,41 L 347,41 L 346,42 L 345,42 L 344,43 L 342,43 L 341,44 L 340,44 L 339,45 L 338,45 L 337,46 L 336,46 L 335,47 L 333,47 L 332,48 L 331,48 L 330,49 L 329,49 L 327,51 L 326,51 L 325,52 L 323,52 L 322,53 L 321,53 L 320,54 L 319,54 L 318,55 L 317,55 L 316,56 L 315,56 L 314,57 L 313,57 L 312,58 L 311,58 L 310,59 L 308,59 L 307,60 L 306,60 L 305,61 L 304,61 L 303,62 L 302,62 L 301,63 L 300,63 L 299,64 L 298,64 L 297,65 L 296,65 L 295,66 L 294,66 L 293,67 L 292,67 L 290,69 L 289,69 L 288,70 L 287,70 L 286,71 L 285,71 L 284,72 L 283,72 L 282,73 L 281,73 L 279,75 L 278,75 L 276,77 L 275,77 L 273,79 L 272,79 L 271,80 L 270,80 L 269,81 L 268,81 L 266,83 L 265,83 L 264,84 L 263,84 L 262,85 L 261,85 L 259,87 L 258,87 L 257,88 L 256,88 L 254,90 L 253,90 L 251,92 L 250,92 L 248,94 L 247,94 L 245,96 L 244,96 L 242,98 L 241,98 L 238,101 L 237,101 L 235,103 L 234,103 L 232,105 L 231,105 L 228,108 L 227,108 L 225,110 L 224,110 L 221,113 L 220,113 L 216,117 L 215,117 L 212,120 L 211,120 L 206,125 L 205,125 L 200,130 L 199,130 L 196,133 L 196,134 L 195,135 L 193,135 L 193,136 L 192,137 L 191,137 L 185,143 L 184,143 L 175,152 L 175,153 L 172,156 L 171,156 L 171,157 L 169,159 L 168,159 L 165,162 L 165,163 L 164,164 L 163,164 L 150,177 L 150,178 L 149,179 L 148,179 L 147,180 L 147,182 L 145,184 L 144,184 L 139,189 L 139,190 L 132,197 L 132,198 L 127,203 L 127,204 L 123,208 L 123,209 L 119,213 L 119,214 L 115,218 L 115,219 L 112,222 L 112,223 L 109,226 L 109,227 L 106,230 L 106,231 L 103,234 L 103,235 L 100,238 L 100,239 L 98,241 L 98,242 L 97,243 L 97,244 L 94,247 L 94,248 L 92,250 L 92,251 L 90,253 L 90,254 L 88,256 L 88,257 L 87,258 L 87,259 L 85,261 L 85,262 L 82,265 L 82,266 L 80,268 L 80,269 L 78,271 L 78,272 L 77,273 L 77,274 L 75,276 L 75,277 L 74,278 L 74,279 L 73,280 L 73,281 L 71,283 L 71,285 L 70,286 L 70,287 L 69,288 L 69,289 L 67,291 L 67,292 L 66,293 L 66,294 L 65,295 L 65,296 L 64,297 L 64,298 L 63,299 L 63,300 L 62,301 L 62,302 L 61,303 L 61,304 L 60,305 L 60,306 L 59,307 L 59,308 L 58,309 L 58,310 L 57,311 L 57,312 L 56,313 L 56,314 L 55,315 L 55,316 L 54,317 L 54,318 L 52,320 L 52,322 L 51,323 L 51,324 L 50,325 L 50,326 L 49,327 L 49,328 L 48,329 L 48,331 L 47,332 L 47,334 L 46,335 L 46,337 L 45,338 L 45,339 L 44,340 L 44,342 L 43,343 L 43,344 L 42,345 L 42,347 L 41,348 L 41,349 L 40,350 L 40,352 L 39,353 L 39,355 L 38,356 L 38,357 L 37,358 L 37,360 L 36,361 L 36,363 L 35,364 L 35,365 L 34,366 L 34,368 L 33,369 L 33,371 L 32,372 L 32,374 L 31,375 L 31,377 L 30,378 L 30,380 L 29,381 L 29,383 L 28,384 L 28,386 L 27,387 L 27,390 L 26,391 L 26,393 L 25,394 L 25,397 L 24,398 L 24,401 L 23,402 L 23,403 L 22,404 L 22,407 L 21,408 L 21,411 L 20,412 L 20,419 L 19,420 L 19,423 L 18,424 L 18,428 L 17,429 L 17,433 L 16,434 L 16,437 L 15,438 L 15,442 L 14,443 L 14,448 L 13,449 L 13,454 L 12,455 L 12,461 L 11,462 L 11,467 L 10,468 L 10,475 L 9,476 L 9,485 L 8,486 L 8,494 L 7,495 L 7,509 L 6,510 L 6,534 L 5,535 L 5,547 L 6,548 L 6,571 L 7,572 L 7,583 L 8,584 L 8,593 L 9,594 L 9,601 L 10,602 L 10,608 L 11,609 L 11,615 L 12,616 L 12,621 L 13,622 L 13,627 L 14,628 L 14,632 L 15,633 L 15,637 L 16,638 L 16,643 L 17,644 L 17,648 L 18,649 L 18,652 L 19,653 L 19,658 L 20,659 L 20,663 L 21,664 L 21,668 L 22,669 L 22,673 L 23,674 L 23,677 L 24,678 L 24,681 L 25,682 L 25,684 L 26,685 L 26,688 L 27,689 L 27,692 L 28,693 L 28,695 L 29,696 L 29,699 L 30,700 L 30,701 L 31,702 L 31,704 L 32,705 L 32,708 L 33,709 L 33,711 L 34,712 L 34,714 L 35,715 L 35,717 L 36,718 L 36,720 L 37,721 L 37,723 L 38,724 L 38,726 L 39,727 L 39,729 L 41,731 L 41,733 L 42,734 L 42,736 L 43,737 L 43,738 L 44,739 L 44,741 L 45,742 L 45,744 L 46,745 L 46,747 L 47,748 L 47,750 L 48,751 L 48,753 L 49,754 L 49,755 L 50,756 L 50,757 L 51,758 L 51,760 L 52,761 L 52,762 L 53,763 L 53,764 L 54,765 L 54,766 L 55,767 L 55,769 L 56,770 L 56,771 L 57,772 L 57,773 L 58,774 L 58,775 L 59,776 L 59,777 L 60,778 L 60,779 L 62,781 L 62,782 L 63,783 L 63,784 L 64,785 L 64,786 L 65,787 L 65,788 L 66,789 L 66,790 L 67,791 L 67,792 L 68,793 L 68,794 L 69,795 L 69,796 L 70,797 L 70,798 L 71,799 L 71,801 L 73,803 L 73,804 L 74,805 L 74,806 L 75,807 L 75,808 L 76,809 L 76,810 L 78,812 L 78,813 L 79,814 L 79,815 L 81,817 L 81,818 L 82,819 L 82,820 L 84,822 L 84,823 L 85,824 L 85,825 L 87,827 L 87,828 L 88,829 L 88,830 L 92,834 L 92,835 L 94,837 L 94,838 L 96,840 L 96,841 L 97,842 L 97,843 L 99,845 L 99,846 L 102,849 L 102,850 L 104,852 L 104,853 L 107,856 L 107,857 L 109,859 L 109,860 L 112,863 L 112,864 L 116,868 L 116,869 L 119,872 L 119,873 L 123,877 L 123,878 L 127,882 L 127,883 L 133,889 L 133,890 L 140,897 L 140,898 L 156,914 L 156,915 L 161,920 L 162,920 L 178,936 L 179,936 L 187,944 L 188,944 L 194,950 L 195,950 L 200,955 L 201,955 L 204,958 L 205,958 L 209,962 L 210,962 L 213,965 L 214,965 L 218,969 L 219,969 L 222,972 L 223,972 L 225,974 L 226,974 L 229,977 L 230,977 L 233,980 L 234,980 L 236,982 L 237,982 L 239,984 L 240,984 L 242,986 L 243,986 L 245,988 L 246,988 L 248,990 L 249,990 L 251,992 L 252,992 L 256,996 L 257,996 L 258,997 L 259,997 L 261,999 L 262,999 L 264,1001 L 265,1001 L 266,1002 L 267,1002 L 269,1004 L 270,1004 L 272,1006 L 273,1006 L 274,1007 L 275,1007 L 276,1008 L 277,1008 L 279,1010 L 281,1010 L 283,1012 L 284,1012 L 285,1013 L 286,1013 L 287,1014 L 288,1014 L 289,1015 L 290,1015 L 292,1017 L 293,1017 L 294,1018 L 295,1018 L 296,1019 L 297,1019 L 298,1020 L 299,1020 L 300,1021 L 301,1021 L 302,1022 L 303,1022 L 305,1024 L 306,1024 L 308,1026 L 309,1026 L 310,1027 L 311,1027 L 312,1028 L 313,1028 L 314,1029 L 315,1029 L 316,1030 L 317,1030 L 318,1031 L 320,1031 L 321,1032 L 322,1032 L 323,1033 L 324,1033 L 325,1034 L 327,1034 L 328,1035 L 329,1035 L 330,1036 L 331,1036 L 332,1037 L 334,1037 L 335,1038 L 336,1038 L 337,1039 L 338,1039 L 339,1040 L 341,1040 L 342,1041 L 343,1041 L 344,1042 L 345,1042 L 346,1043 L 348,1043 L 349,1044 L 350,1044 L 351,1045 L 353,1045 L 354,1046 L 355,1046 L 356,1047 L 357,1047 L 358,1048 L 359,1048 L 360,1049 L 362,1049 L 363,1050 L 365,1050 L 366,1051 L 367,1051 L 368,1052 L 370,1052 L 371,1053 L 373,1053 L 374,1054 L 376,1054 L 377,1055 L 379,1055 L 380,1056 L 382,1056 L 383,1057 L 385,1057 L 386,1058 L 390,1058 L 391,1059 L 392,1059 L 393,1060 L 396,1060 L 397,1061 L 400,1061 L 401,1062 L 403,1062 L 404,1063 L 406,1063 L 407,1064 L 409,1064 L 410,1065 L 413,1065 L 414,1066 L 417,1066 L 418,1067 L 421,1067 L 422,1068 L 425,1068 L 426,1069 L 429,1069 L 430,1070 L 432,1070 L 433,1071 L 437,1071 L 438,1072 L 442,1072 L 443,1073 L 447,1073 L 448,1074 L 452,1074 L 453,1075 L 457,1075 L 458,1076 L 462,1076 L 463,1077 L 468,1077 L 469,1078 L 475,1078 L 476,1079 L 483,1079 L 484,1080 L 491,1080 L 492,1081 L 499,1081 L 500,1082 L 511,1082 L 512,1083 L 526,1083 L 527,1084 L 602,1084 L 603,1083 L 616,1083 L 617,1082 L 627,1082 L 628,1081 L 637,1081 L 638,1080 L 643,1080 L 644,1079 L 650,1079 L 651,1078 L 657,1078 L 658,1077 L 662,1077 L 663,1076 L 668,1076 L 669,1075 L 672,1075 L 673,1074 L 677,1074 L 678,1073 L 681,1073 L 682,1072 L 685,1072 L 686,1071 L 689,1071 L 690,1070 L 693,1070 L 694,1069 L 697,1069 L 698,1068 L 700,1068 L 701,1067 L 704,1067 L 705,1066 L 707,1066 L 708,1065 L 711,1065 L 712,1064 L 714,1064 L 715,1063 L 718,1063 L 719,1062 L 721,1062 L 722,1061 L 724,1061 L 725,1060 L 729,1060 L 730,1059 L 732,1059 L 733,1058 L 736,1058 L 737,1057 L 738,1057 L 739,1056 L 741,1056 L 742,1055 L 744,1055 L 745,1054 L 746,1054 L 747,1053 L 749,1053 L 750,1052 L 752,1052 L 753,1051 L 754,1051 L 755,1050 L 757,1050 L 758,1049 L 760,1049 L 761,1048 L 762,1048 L 763,1047 L 765,1047 L 766,1046 L 767,1046 L 768,1045 L 770,1045 L 771,1044 L 772,1044 L 773,1043 L 775,1043 L 776,1042 L 777,1042 L 778,1041 L 780,1041 L 782,1039 L 783,1039 L 784,1038 L 786,1038 L 787,1037 L 788,1037 L 789,1036 L 790,1036 L 791,1035 L 793,1035 L 794,1034 L 795,1034 L 796,1033 L 798,1033 L 799,1032 L 800,1032 L 801,1031 L 802,1031 L 803,1030 L 804,1030 L 805,1029 L 806,1029 L 807,1028 L 809,1028 L 810,1027 L 811,1027 L 812,1026 L 813,1026 L 814,1025 L 815,1025 L 816,1024 L 817,1024 L 818,1023 L 819,1023 L 821,1021 L 822,1021 L 823,1020 L 824,1020 L 825,1019 L 826,1019 L 827,1018 L 828,1018 L 829,1017 L 830,1017 L 832,1015 L 833,1015 L 835,1013 L 836,1013 L 837,1012 L 838,1012 L 839,1011 L 840,1011 L 841,1010 L 842,1010 L 843,1009 L 844,1009 L 845,1008 L 846,1008 L 848,1006 L 849,1006 L 850,1005 L 851,1005 L 853,1003 L 854,1003 L 855,1002 L 856,1002 L 858,1000 L 859,1000 L 860,999 L 861,999 L 863,997 L 864,997 L 866,995 L 867,995 L 869,993 L 870,993 L 872,991 L 873,991 L 875,989 L 876,989 L 878,987 L 879,987 L 881,985 L 882,985 L 883,984 L 884,984 L 886,982 L 887,982 L 890,979 L 891,979 L 894,976 L 895,976 L 897,974 L 898,974 L 901,971 L 902,971 L 908,965 L 909,965 L 914,960 L 915,960 L 919,956 L 920,956 L 921,955 L 922,955 L 922,954 L 923,953 L 924,953 L 926,951 L 927,951 L 930,948 L 930,947 L 931,946 L 932,946 L 942,936 L 943,936 L 948,931 L 949,931 L 949,930 L 954,925 L 955,925 L 955,924 L 976,903 L 977,903 L 977,902 L 978,901 L 978,900 L 979,899 L 980,899 L 984,895 L 984,894 L 985,893 L 985,892 L 992,885 L 992,884 L 994,882 L 995,882 L 995,881 L 996,880 L 997,880 L 997,879 L 1001,875 L 1001,874 L 1005,870 L 1005,869 L 1008,866 L 1008,865 L 1011,862 L 1011,861 L 1013,859 L 1013,858 L 1016,855 L 1016,854 L 1019,851 L 1019,850 L 1021,848 L 1021,847 L 1023,845 L 1023,844 L 1026,841 L 1026,840 L 1028,838 L 1028,837 L 1030,835 L 1030,834 L 1031,833 L 1031,832 L 1033,830 L 1033,829 L 1035,827 L 1035,826 L 1036,825 L 1036,824 L 1037,823 L 1037,822 L 1039,820 L 1039,819 L 1041,817 L 1041,816 L 1042,815 L 1042,814 L 1044,812 L 1044,811 L 1045,810 L 1045,809 L 1046,808 L 1046,807 L 1049,804 L 1049,803 L 1050,802 L 1050,801 L 1052,799 L 1052,798 L 1053,797 L 1053,796 L 1054,795 L 1054,794 L 1055,793 L 1055,792 L 1056,791 L 1056,790 L 1057,789 L 1057,788 L 1058,787 L 1058,786 L 1060,784 L 1060,783 L 1061,782 L 1061,781 L 1062,780 L 1062,778 L 1063,777 L 1063,776 L 1064,775 L 1064,773 L 1065,772 L 1065,771 L 1066,770 L 1066,769 L 1067,768 L 1067,767 L 1068,766 L 1068,765 L 1069,764 L 1069,763 L 1070,762 L 1070,761 L 1071,760 L 1071,759 L 1072,758 L 1072,756 L 1073,755 L 1073,754 L 1075,752 L 1075,750 L 1076,749 L 1076,748 L 1077,747 L 1077,746 L 1078,745 L 1078,743 L 1079,742 L 1079,741 L 1080,740 L 1080,738 L 1081,737 L 1081,736 L 1082,735 L 1082,733 L 1083,732 L 1083,731 L 1084,730 L 1084,728 L 1085,727 L 1085,726 L 1086,725 L 1086,722 L 1087,721 L 1087,720 L 1088,719 L 1088,716 L 1089,715 L 1089,713 L 1090,712 L 1090,710 L 1091,709 L 1091,708 L 1092,707 L 1092,705 L 1093,704 L 1093,702 L 1094,701 L 1094,699 L 1095,698 L 1095,696 L 1096,695 L 1096,693 L 1097,692 L 1097,689 L 1098,688 L 1098,686 L 1099,685 L 1099,682 L 1100,681 L 1100,679 L 1101,678 L 1101,676 L 1102,675 L 1102,672 L 1103,671 L 1103,668 L 1104,667 L 1104,663 L 1105,662 L 1105,659 L 1106,658 L 1106,654 L 1107,653 L 1107,649 L 1108,648 L 1108,645 L 1109,644 L 1109,639 L 1110,638 L 1110,633 L 1111,632 L 1111,627 L 1112,626 L 1112,619 L 1113,618 L 1113,612 L 1114,611 L 1114,592 L 1115,591 L 1115,576 L 1116,575 L 1116,526 L 1115,525 L 1115,509 L 1114,508 L 1114,486 L 1113,485 L 1113,480 L 1112,479 L 1112,468 L 1111,467 L 1111,461 L 1110,460 L 1110,454 L 1109,453 L 1109,448 L 1108,447 L 1108,443 L 1107,442 L 1107,437 L 1106,436 L 1106,432 L 1105,431 L 1105,427 L 1104,426 L 1104,422 L 1103,421 L 1103,418 L 1102,417 L 1102,415 L 1101,414 L 1101,410 L 1100,409 L 1100,406 L 1099,405 L 1099,402 L 1098,401 L 1098,398 L 1097,397 L 1097,395 L 1096,394 L 1096,391 L 1095,390 L 1095,389 L 1094,388 L 1094,385 L 1093,384 L 1093,382 L 1092,381 L 1092,378 L 1091,377 L 1091,375 L 1090,374 L 1090,372 L 1089,371 L 1089,369 L 1088,368 L 1088,364 L 1087,363 L 1087,362 L 1086,361 L 1086,358 L 1085,357 L 1085,355 L 1084,354 L 1084,353 L 1083,352 L 1083,350 L 1082,349 L 1082,347 L 1081,346 L 1081,345 L 1080,344 L 1080,343 L 1079,342 L 1079,341 L 1078,340 L 1078,338 L 1077,337 L 1077,336 L 1076,335 L 1076,333 L 1075,332 L 1075,331 L 1074,330 L 1074,328 L 1073,327 L 1073,326 L 1072,325 L 1072,324 L 1071,323 L 1071,322 L 1070,321 L 1070,319 L 1069,318 L 1069,317 L 1068,316 L 1068,315 L 1067,314 L 1067,313 L 1066,312 L 1066,311 L 1065,310 L 1065,308 L 1063,306 L 1063,305 L 1062,304 L 1062,302 L 1061,301 L 1061,299 L 1059,297 L 1059,296 L 1058,295 L 1058,294 L 1056,292 L 1056,291 L 1055,290 L 1055,289 L 1054,288 L 1054,287 L 1053,286 L 1053,285 L 1052,284 L 1052,283 L 1051,282 L 1051,281 L 1049,279 L 1049,278 L 1048,277 L 1048,276 L 1047,275 L 1047,274 L 1045,272 L 1045,271 L 1044,270 L 1044,269 L 1042,267 L 1042,266 L 1041,265 L 1041,264 L 1039,262 L 1039,261 L 1037,259 L 1037,258 L 1036,257 L 1036,256 L 1035,255 L 1035,254 L 1033,252 L 1033,251 L 1031,249 L 1031,248 L 1029,246 L 1029,245 L 1027,243 L 1027,242 L 1024,239 L 1024,238 L 1023,238 L 1022,237 L 1022,236 L 1019,233 L 1019,232 L 1017,230 L 1017,229 L 1014,226 L 1014,225 L 1010,221 L 1010,220 L 1008,218 L 1008,217 L 1004,213 L 1004,212 L 999,207 L 999,206 L 993,200 L 993,199 L 985,191 L 985,190 L 956,161 L 955,161 L 946,152 L 945,152 L 938,145 L 937,145 L 932,140 L 931,140 L 927,136 L 926,136 L 921,131 L 920,131 L 916,127 L 915,127 L 912,124 L 911,124 L 907,120 L 906,120 L 903,117 L 902,117 L 898,113 L 897,113 L 894,110 L 893,110 L 891,108 L 890,108 L 887,105 L 886,105 L 883,102 L 882,102 L 881,101 L 881,100 L 880,100 L 877,97 L 876,97 L 874,95 L 873,95 L 871,93 L 870,93 L 867,90 L 866,90 L 864,88 L 863,88 L 861,86 L 860,86 L 858,84 L 856,84 L 854,82 L 853,82 L 851,80 L 850,80 L 849,79 L 848,79 L 846,77 L 845,77 L 843,75 L 842,75 L 841,74 L 840,74 L 839,73 L 838,73 L 836,71 L 835,71 L 834,70 L 833,70 L 831,68 L 830,68 L 829,67 L 828,67 L 827,66 L 826,66 L 825,65 L 824,65 L 821,62 L 820,62 L 819,61 L 817,61 L 816,60 L 815,60 L 814,59 L 812,59 L 810,57 L 809,57 L 808,56 L 807,56 L 806,55 L 805,55 L 804,54 L 803,54 L 802,53 L 801,53 L 800,52 L 799,52 L 798,51 L 797,51 L 796,50 L 795,50 L 794,49 L 793,49 L 792,48 L 790,48 L 789,47 L 788,47 L 787,46 L 786,46 L 785,45 L 784,45 L 783,44 L 781,44 L 780,43 L 779,43 L 778,42 L 777,42 L 776,41 L 774,41 L 773,40 L 772,40 L 771,39 L 770,39 L 769,38 L 768,38 L 767,37 L 765,37 L 764,36 L 763,36 L 762,35 L 759,35 L 758,34 L 757,34 L 756,33 L 753,33 L 752,32 L 750,32 L 749,31 L 747,31 L 746,30 L 744,30 L 743,29 L 741,29 L 740,28 L 738,28 L 737,27 L 735,27 L 734,26 L 732,26 L 731,25 L 729,25 L 728,24 L 726,24 L 725,23 L 723,23 L 722,22 L 720,22 L 719,21 L 716,21 L 715,20 L 712,20 L 711,19 L 709,19 L 708,18 L 705,18 L 704,17 L 701,17 L 700,16 L 697,16 L 696,15 L 693,15 L 692,14 L 689,14 L 688,13 L 684,13 L 683,12 L 679,12 L 678,11 L 674,11 L 673,10 L 669,10 L 668,9 L 663,9 L 662,8 L 653,8 L 652,7 L 646,7 L 645,6 L 638,6 L 637,5 L 629,5 L 628,4 L 620,4 L 619,3 L 607,3 L 606,2 L 589,2 L 588,1 L 588,0 Z M 550,9 L 551,8 L 587,8 L 588,9 L 606,9 L 607,10 L 617,10 L 618,11 L 628,11 L 629,12 L 636,12 L 637,13 L 644,13 L 645,14 L 650,14 L 651,15 L 657,15 L 658,16 L 663,16 L 664,17 L 668,17 L 669,18 L 678,18 L 679,19 L 682,19 L 683,20 L 686,20 L 687,21 L 690,21 L 691,22 L 695,22 L 696,23 L 699,23 L 700,24 L 703,24 L 704,25 L 707,25 L 708,26 L 710,26 L 711,27 L 714,27 L 715,28 L 717,28 L 718,29 L 720,29 L 721,30 L 723,30 L 724,31 L 727,31 L 728,32 L 730,32 L 731,33 L 733,33 L 734,34 L 736,34 L 737,35 L 739,35 L 740,36 L 742,36 L 743,37 L 745,37 L 746,38 L 748,38 L 749,39 L 751,39 L 752,40 L 753,40 L 754,41 L 755,41 L 756,42 L 760,42 L 761,43 L 762,43 L 763,44 L 764,44 L 765,45 L 767,45 L 768,46 L 769,46 L 770,47 L 772,47 L 773,48 L 774,48 L 775,49 L 776,49 L 777,50 L 779,50 L 780,51 L 781,51 L 782,52 L 783,52 L 784,53 L 785,53 L 786,54 L 788,54 L 789,55 L 790,55 L 791,56 L 792,56 L 793,57 L 794,57 L 795,58 L 796,58 L 798,60 L 799,60 L 800,61 L 801,61 L 802,62 L 803,62 L 804,63 L 805,63 L 806,64 L 807,64 L 808,65 L 809,65 L 810,66 L 811,66 L 812,67 L 813,67 L 814,68 L 815,68 L 816,69 L 818,69 L 820,71 L 821,71 L 822,72 L 823,72 L 824,73 L 825,73 L 826,74 L 827,74 L 829,76 L 830,76 L 831,77 L 832,77 L 834,79 L 835,79 L 836,80 L 837,80 L 839,82 L 840,82 L 841,83 L 842,83 L 844,85 L 845,85 L 846,86 L 847,86 L 849,88 L 850,88 L 852,90 L 853,90 L 855,92 L 856,92 L 857,93 L 858,93 L 860,95 L 861,95 L 863,97 L 864,97 L 866,99 L 867,99 L 869,101 L 870,101 L 873,104 L 874,104 L 875,105 L 875,106 L 876,106 L 879,109 L 880,109 L 883,112 L 884,112 L 887,115 L 888,115 L 891,118 L 892,118 L 894,120 L 895,120 L 898,123 L 899,123 L 903,127 L 904,127 L 907,130 L 908,130 L 912,134 L 913,134 L 917,138 L 918,138 L 923,143 L 924,143 L 928,147 L 929,147 L 935,153 L 936,153 L 943,160 L 944,160 L 955,171 L 956,171 L 975,190 L 975,191 L 986,202 L 986,203 L 992,209 L 992,210 L 997,215 L 997,216 L 1000,219 L 1000,220 L 1004,224 L 1004,225 L 1007,228 L 1007,229 L 1010,232 L 1010,233 L 1013,236 L 1013,237 L 1016,240 L 1016,241 L 1018,243 L 1018,244 L 1020,246 L 1020,247 L 1023,250 L 1023,251 L 1024,251 L 1025,252 L 1025,253 L 1026,254 L 1026,255 L 1028,257 L 1028,258 L 1029,259 L 1029,261 L 1030,261 L 1031,262 L 1031,263 L 1032,264 L 1032,265 L 1035,268 L 1035,269 L 1036,270 L 1036,271 L 1038,273 L 1038,274 L 1039,275 L 1039,276 L 1041,278 L 1041,279 L 1042,280 L 1042,281 L 1043,282 L 1043,283 L 1045,285 L 1045,286 L 1046,287 L 1046,288 L 1047,289 L 1047,290 L 1048,291 L 1048,292 L 1049,293 L 1049,294 L 1051,296 L 1051,297 L 1052,298 L 1052,300 L 1053,301 L 1053,302 L 1054,303 L 1054,304 L 1055,305 L 1055,306 L 1056,307 L 1056,308 L 1057,309 L 1057,310 L 1058,311 L 1058,312 L 1059,313 L 1059,315 L 1060,316 L 1060,317 L 1062,319 L 1062,320 L 1063,321 L 1063,322 L 1064,323 L 1064,324 L 1065,325 L 1065,327 L 1066,328 L 1066,329 L 1067,330 L 1067,331 L 1068,332 L 1068,334 L 1069,335 L 1069,336 L 1070,337 L 1070,339 L 1071,340 L 1071,341 L 1072,342 L 1072,344 L 1073,345 L 1073,346 L 1074,347 L 1074,349 L 1075,350 L 1075,351 L 1076,352 L 1076,353 L 1077,354 L 1077,356 L 1078,357 L 1078,360 L 1079,361 L 1079,364 L 1080,365 L 1080,366 L 1081,367 L 1081,369 L 1082,370 L 1082,372 L 1083,373 L 1083,375 L 1084,376 L 1084,379 L 1085,380 L 1085,382 L 1086,383 L 1086,385 L 1087,386 L 1087,389 L 1088,390 L 1088,392 L 1089,393 L 1089,396 L 1090,397 L 1090,398 L 1091,399 L 1091,402 L 1092,403 L 1092,406 L 1093,407 L 1093,410 L 1094,411 L 1094,414 L 1095,415 L 1095,419 L 1096,420 L 1096,423 L 1097,424 L 1097,427 L 1098,428 L 1098,432 L 1099,433 L 1099,437 L 1100,438 L 1100,442 L 1101,443 L 1101,448 L 1102,449 L 1102,454 L 1103,455 L 1103,460 L 1104,461 L 1104,469 L 1105,470 L 1105,485 L 1106,486 L 1106,495 L 1107,496 L 1107,508 L 1108,509 L 1108,525 L 1109,526 L 1109,574 L 1108,575 L 1108,591 L 1107,592 L 1107,602 L 1106,603 L 1106,611 L 1105,612 L 1105,619 L 1104,620 L 1104,632 L 1103,633 L 1103,637 L 1102,638 L 1102,642 L 1101,643 L 1101,647 L 1100,648 L 1100,652 L 1099,653 L 1099,657 L 1098,658 L 1098,661 L 1097,662 L 1097,666 L 1096,667 L 1096,669 L 1095,670 L 1095,673 L 1094,674 L 1094,676 L 1093,677 L 1093,680 L 1092,681 L 1092,684 L 1091,685 L 1091,687 L 1090,688 L 1090,690 L 1089,691 L 1089,694 L 1088,695 L 1088,696 L 1087,697 L 1087,699 L 1086,700 L 1086,702 L 1085,703 L 1085,705 L 1084,706 L 1084,708 L 1083,709 L 1083,711 L 1082,712 L 1082,713 L 1081,714 L 1081,716 L 1080,717 L 1080,719 L 1079,720 L 1079,722 L 1078,723 L 1078,726 L 1077,727 L 1077,728 L 1076,729 L 1076,731 L 1075,732 L 1075,733 L 1074,734 L 1074,736 L 1073,737 L 1073,738 L 1072,739 L 1072,741 L 1071,742 L 1071,743 L 1069,745 L 1069,747 L 1068,748 L 1068,749 L 1067,750 L 1067,751 L 1066,752 L 1066,754 L 1065,755 L 1065,756 L 1064,757 L 1064,758 L 1063,759 L 1063,760 L 1062,761 L 1062,762 L 1061,763 L 1061,764 L 1060,765 L 1060,767 L 1059,768 L 1059,769 L 1058,770 L 1058,771 L 1057,772 L 1057,773 L 1056,774 L 1056,775 L 1055,776 L 1055,777 L 1054,778 L 1054,779 L 1053,780 L 1053,781 L 1052,782 L 1052,783 L 1051,784 L 1051,785 L 1050,786 L 1050,787 L 1049,788 L 1049,789 L 1048,790 L 1048,791 L 1047,792 L 1047,793 L 1046,794 L 1046,795 L 1045,796 L 1044,796 L 1044,797 L 1043,798 L 1043,799 L 1042,800 L 1042,801 L 1040,803 L 1040,804 L 1039,805 L 1039,806 L 1038,807 L 1038,808 L 1036,810 L 1036,811 L 1035,812 L 1035,813 L 1033,815 L 1033,816 L 1031,818 L 1031,819 L 1030,820 L 1030,821 L 1028,823 L 1028,824 L 1026,826 L 1026,827 L 1025,828 L 1025,829 L 1023,831 L 1023,832 L 1021,834 L 1021,835 L 1019,837 L 1019,838 L 1017,840 L 1017,841 L 1015,843 L 1015,844 L 1012,847 L 1012,848 L 1007,853 L 1007,854 L 1004,857 L 1004,859 L 1000,863 L 1000,864 L 997,867 L 997,868 L 990,875 L 990,876 L 984,882 L 984,883 L 978,889 L 978,890 L 969,899 L 969,900 L 942,927 L 941,927 L 931,937 L 930,937 L 923,944 L 922,944 L 918,948 L 917,948 L 912,953 L 911,953 L 907,957 L 906,957 L 902,961 L 901,961 L 898,964 L 897,964 L 897,965 L 895,967 L 894,967 L 891,970 L 890,970 L 887,973 L 886,973 L 885,974 L 884,974 L 881,977 L 880,977 L 879,978 L 878,978 L 875,981 L 874,981 L 872,983 L 871,983 L 869,985 L 868,985 L 866,987 L 865,987 L 863,989 L 862,989 L 860,991 L 859,991 L 858,992 L 857,992 L 855,994 L 854,994 L 852,996 L 851,996 L 850,997 L 849,997 L 847,999 L 845,999 L 843,1001 L 842,1001 L 841,1002 L 840,1002 L 838,1004 L 837,1004 L 836,1005 L 835,1005 L 834,1006 L 833,1006 L 832,1007 L 831,1007 L 829,1009 L 828,1009 L 827,1010 L 826,1010 L 825,1011 L 824,1011 L 823,1012 L 822,1012 L 819,1015 L 818,1015 L 817,1016 L 816,1016 L 815,1017 L 814,1017 L 813,1018 L 812,1018 L 811,1019 L 810,1019 L 809,1020 L 808,1020 L 807,1021 L 806,1021 L 805,1022 L 804,1022 L 803,1023 L 802,1023 L 801,1024 L 798,1024 L 796,1026 L 794,1026 L 793,1027 L 792,1027 L 791,1028 L 790,1028 L 789,1029 L 787,1029 L 786,1030 L 785,1030 L 784,1031 L 783,1031 L 782,1032 L 780,1032 L 779,1033 L 778,1033 L 777,1034 L 776,1034 L 775,1035 L 773,1035 L 772,1036 L 771,1036 L 770,1037 L 769,1037 L 768,1038 L 767,1038 L 766,1039 L 764,1039 L 763,1040 L 762,1040 L 761,1041 L 759,1041 L 758,1042 L 757,1042 L 756,1043 L 754,1043 L 753,1044 L 751,1044 L 750,1045 L 749,1045 L 748,1046 L 746,1046 L 745,1047 L 743,1047 L 742,1048 L 740,1048 L 739,1049 L 737,1049 L 736,1050 L 733,1050 L 732,1051 L 730,1051 L 729,1052 L 727,1052 L 726,1053 L 724,1053 L 723,1054 L 721,1054 L 720,1055 L 717,1055 L 716,1056 L 714,1056 L 713,1057 L 711,1057 L 710,1058 L 707,1058 L 706,1059 L 703,1059 L 702,1060 L 700,1060 L 699,1061 L 696,1061 L 695,1062 L 692,1062 L 691,1063 L 689,1063 L 688,1064 L 685,1064 L 684,1065 L 681,1065 L 680,1066 L 677,1066 L 676,1067 L 672,1067 L 671,1068 L 667,1068 L 666,1069 L 663,1069 L 662,1070 L 657,1070 L 656,1071 L 651,1071 L 650,1072 L 644,1072 L 643,1073 L 636,1073 L 635,1074 L 628,1074 L 627,1075 L 604,1075 L 603,1076 L 525,1076 L 524,1075 L 501,1075 L 500,1074 L 492,1074 L 491,1073 L 484,1073 L 483,1072 L 477,1072 L 476,1071 L 471,1071 L 470,1070 L 465,1070 L 464,1069 L 459,1069 L 458,1068 L 454,1068 L 453,1067 L 448,1067 L 447,1066 L 443,1066 L 442,1065 L 440,1065 L 439,1064 L 435,1064 L 434,1063 L 431,1063 L 430,1062 L 427,1062 L 426,1061 L 423,1061 L 422,1060 L 419,1060 L 418,1059 L 415,1059 L 414,1058 L 412,1058 L 411,1057 L 409,1057 L 408,1056 L 405,1056 L 404,1055 L 402,1055 L 401,1054 L 399,1054 L 398,1053 L 395,1053 L 394,1052 L 392,1052 L 391,1051 L 387,1051 L 386,1050 L 384,1050 L 383,1049 L 381,1049 L 380,1048 L 378,1048 L 377,1047 L 375,1047 L 374,1046 L 372,1046 L 371,1045 L 370,1045 L 369,1044 L 368,1044 L 367,1043 L 365,1043 L 364,1042 L 363,1042 L 362,1041 L 360,1041 L 359,1040 L 358,1040 L 357,1039 L 355,1039 L 354,1038 L 353,1038 L 352,1037 L 350,1037 L 349,1036 L 348,1036 L 347,1035 L 346,1035 L 345,1034 L 343,1034 L 342,1033 L 341,1033 L 340,1032 L 339,1032 L 338,1031 L 336,1031 L 335,1030 L 334,1030 L 333,1029 L 332,1029 L 331,1028 L 330,1028 L 329,1027 L 328,1027 L 327,1026 L 324,1026 L 323,1025 L 322,1025 L 320,1023 L 318,1023 L 316,1021 L 315,1021 L 314,1020 L 313,1020 L 312,1019 L 311,1019 L 310,1018 L 309,1018 L 308,1017 L 307,1017 L 305,1015 L 304,1015 L 303,1014 L 302,1014 L 301,1013 L 300,1013 L 299,1012 L 298,1012 L 297,1011 L 296,1011 L 295,1010 L 294,1010 L 292,1008 L 291,1008 L 290,1007 L 289,1007 L 288,1006 L 287,1006 L 285,1004 L 284,1004 L 283,1003 L 282,1003 L 280,1001 L 279,1001 L 278,1000 L 277,1000 L 276,999 L 275,999 L 274,998 L 273,998 L 271,996 L 270,996 L 269,995 L 268,995 L 266,993 L 265,993 L 263,991 L 262,991 L 261,990 L 261,989 L 260,989 L 259,988 L 258,988 L 256,986 L 255,986 L 253,984 L 252,984 L 249,981 L 248,981 L 246,979 L 245,979 L 243,977 L 242,977 L 240,975 L 239,975 L 237,973 L 236,973 L 234,971 L 233,971 L 230,968 L 229,968 L 226,965 L 225,965 L 222,962 L 221,962 L 218,959 L 217,959 L 213,955 L 212,955 L 208,951 L 207,951 L 204,948 L 203,948 L 198,943 L 197,943 L 190,936 L 189,936 L 180,927 L 179,927 L 149,897 L 149,896 L 140,887 L 140,886 L 134,880 L 134,879 L 130,875 L 130,874 L 126,870 L 126,869 L 122,865 L 122,864 L 119,861 L 119,860 L 116,857 L 116,856 L 113,853 L 113,852 L 110,849 L 110,848 L 108,846 L 108,845 L 106,843 L 106,842 L 104,840 L 104,839 L 102,837 L 102,836 L 100,834 L 100,833 L 98,831 L 98,830 L 96,828 L 96,827 L 95,826 L 95,825 L 93,823 L 93,822 L 92,822 L 91,821 L 91,820 L 90,819 L 90,818 L 88,816 L 88,815 L 87,814 L 87,813 L 85,811 L 85,810 L 84,809 L 84,808 L 82,806 L 82,804 L 81,803 L 81,802 L 80,801 L 80,800 L 78,798 L 78,797 L 77,796 L 77,795 L 76,794 L 76,793 L 75,792 L 75,791 L 74,790 L 74,789 L 73,788 L 73,787 L 72,786 L 72,785 L 71,784 L 71,783 L 70,782 L 70,781 L 69,780 L 69,779 L 68,778 L 68,777 L 67,776 L 67,775 L 66,774 L 66,773 L 65,772 L 65,771 L 63,769 L 63,768 L 62,767 L 62,766 L 61,765 L 61,763 L 60,762 L 60,761 L 59,760 L 59,759 L 58,758 L 58,757 L 57,756 L 57,754 L 56,753 L 56,751 L 55,750 L 55,748 L 54,747 L 54,746 L 53,745 L 53,743 L 52,742 L 52,741 L 51,740 L 51,738 L 50,737 L 50,735 L 49,734 L 49,733 L 48,732 L 48,730 L 47,729 L 47,727 L 46,726 L 46,724 L 44,722 L 44,720 L 43,719 L 43,717 L 42,716 L 42,714 L 41,713 L 41,711 L 40,710 L 40,707 L 39,706 L 39,704 L 38,703 L 38,701 L 37,700 L 37,698 L 36,697 L 36,694 L 35,693 L 35,692 L 34,691 L 34,688 L 33,687 L 33,684 L 32,683 L 32,681 L 31,680 L 31,677 L 30,676 L 30,673 L 29,672 L 29,667 L 28,666 L 28,661 L 27,660 L 27,656 L 26,655 L 26,653 L 25,652 L 25,648 L 24,647 L 24,643 L 23,642 L 23,638 L 22,637 L 22,632 L 21,631 L 21,626 L 20,625 L 20,621 L 19,620 L 19,615 L 18,614 L 18,608 L 17,607 L 17,601 L 16,600 L 16,593 L 15,592 L 15,583 L 14,582 L 14,570 L 13,569 L 13,547 L 12,546 L 12,535 L 13,534 L 13,510 L 14,509 L 14,497 L 15,496 L 15,486 L 16,485 L 16,477 L 17,476 L 17,470 L 18,469 L 18,463 L 19,462 L 19,456 L 20,455 L 20,450 L 21,449 L 21,445 L 22,444 L 22,440 L 23,439 L 23,435 L 24,434 L 24,430 L 25,429 L 25,425 L 26,424 L 26,421 L 27,420 L 27,416 L 28,415 L 28,412 L 29,411 L 29,409 L 30,408 L 30,403 L 31,402 L 31,399 L 32,398 L 32,395 L 33,394 L 33,392 L 34,391 L 34,389 L 35,388 L 35,385 L 36,384 L 36,382 L 37,381 L 37,379 L 38,378 L 38,376 L 39,375 L 39,373 L 40,372 L 40,371 L 41,370 L 41,368 L 42,367 L 42,365 L 43,364 L 43,362 L 44,361 L 44,360 L 45,359 L 45,357 L 46,356 L 46,354 L 47,353 L 47,352 L 48,351 L 48,349 L 49,348 L 49,347 L 50,346 L 50,344 L 51,343 L 51,342 L 52,341 L 52,340 L 53,339 L 53,337 L 54,336 L 54,333 L 55,332 L 56,332 L 56,330 L 57,329 L 57,328 L 58,327 L 58,325 L 59,324 L 59,323 L 60,322 L 60,321 L 61,320 L 61,319 L 62,318 L 62,317 L 63,316 L 63,315 L 64,314 L 64,313 L 65,312 L 65,311 L 66,310 L 66,309 L 67,308 L 67,307 L 68,306 L 68,305 L 69,304 L 69,303 L 70,302 L 70,301 L 71,300 L 71,299 L 72,298 L 72,297 L 73,296 L 73,295 L 75,293 L 75,292 L 77,290 L 77,288 L 78,287 L 78,286 L 79,285 L 80,285 L 80,283 L 82,281 L 82,279 L 83,278 L 83,277 L 86,274 L 86,273 L 88,271 L 88,270 L 89,269 L 89,268 L 91,266 L 91,265 L 93,263 L 93,262 L 95,260 L 95,259 L 97,257 L 97,256 L 99,254 L 99,253 L 101,251 L 101,250 L 103,248 L 103,247 L 105,245 L 105,244 L 107,242 L 107,241 L 109,239 L 109,238 L 112,235 L 112,234 L 115,231 L 115,230 L 118,227 L 118,226 L 122,222 L 122,221 L 126,217 L 126,216 L 129,213 L 130,213 L 130,211 L 134,207 L 134,206 L 139,201 L 139,200 L 156,183 L 156,181 L 158,179 L 159,179 L 159,178 L 160,177 L 161,177 L 161,176 L 166,171 L 167,171 L 183,155 L 183,154 L 185,152 L 186,152 L 193,145 L 194,145 L 196,143 L 197,143 L 203,137 L 204,137 L 207,134 L 207,133 L 208,132 L 209,132 L 214,127 L 215,127 L 219,123 L 220,123 L 223,120 L 224,120 L 226,118 L 227,118 L 230,115 L 231,115 L 234,112 L 235,112 L 238,109 L 239,109 L 241,107 L 242,107 L 244,105 L 245,105 L 248,102 L 249,102 L 251,100 L 252,100 L 254,98 L 255,98 L 256,97 L 257,97 L 259,95 L 260,95 L 261,94 L 262,94 L 264,92 L 265,92 L 266,91 L 267,91 L 269,89 L 270,89 L 271,88 L 272,88 L 274,86 L 275,86 L 276,85 L 277,85 L 279,83 L 280,83 L 281,82 L 282,82 L 283,81 L 284,81 L 287,78 L 288,78 L 289,77 L 290,77 L 291,76 L 292,76 L 293,75 L 294,75 L 296,73 L 297,73 L 298,72 L 299,72 L 300,71 L 301,71 L 302,70 L 303,70 L 304,69 L 306,69 L 307,68 L 308,68 L 309,67 L 310,67 L 311,66 L 312,66 L 313,65 L 314,65 L 315,64 L 316,64 L 317,63 L 318,63 L 319,62 L 320,62 L 321,61 L 322,61 L 323,60 L 324,60 L 325,59 L 326,59 L 327,58 L 328,58 L 329,57 L 331,57 L 332,56 L 333,56 L 334,55 L 335,55 L 336,54 L 337,54 L 338,53 L 339,53 L 340,52 L 341,52 L 342,51 L 343,51 L 344,50 L 345,50 L 346,49 L 348,49 L 349,48 L 350,48 L 351,47 L 353,47 L 354,46 L 355,46 L 356,45 L 358,45 L 359,44 L 360,44 L 361,43 L 364,43 L 365,42 L 367,42 L 368,41 L 370,41 L 371,40 L 372,40 L 373,39 L 375,39 L 376,38 L 378,38 L 379,37 L 381,37 L 382,36 L 384,36 L 385,35 L 386,35 L 387,34 L 389,34 L 390,33 L 392,33 L 393,32 L 395,32 L 396,31 L 399,31 L 400,30 L 402,30 L 403,29 L 406,29 L 407,28 L 409,28 L 410,27 L 413,27 L 414,26 L 416,26 L 417,25 L 420,25 L 421,24 L 424,24 L 425,23 L 429,23 L 430,22 L 433,22 L 434,21 L 438,21 L 439,20 L 443,20 L 444,19 L 448,19 L 449,18 L 456,18 L 457,17 L 466,17 L 467,16 L 474,16 L 475,15 L 482,15 L 483,14 L 490,14 L 491,13 L 501,13 L 502,12 L 513,12 L 514,11 L 526,11 L 527,10 L 538,10 L 539,9 Z" fill="#000000" fill-rule="evenodd"/>
</svg>
